<?xml version="1.0" encoding="UTF-8" standalone="no"?>
<svg
   xmlns:dc="http://purl.org/dc/elements/1.1/"
   xmlns:cc="http://creativecommons.org/ns#"
   xmlns:rdf="http://www.w3.org/1999/02/22-rdf-syntax-ns#"
   xmlns:svg="http://www.w3.org/2000/svg"
   xmlns="http://www.w3.org/2000/svg"
   viewBox="0 0 2560 1440"
   height="1440"
   width="2560"
   xml:space="preserve"
   id="svg2"
   version="1.1"><metadata
     id="metadata8"><rdf:RDF><cc:Work
         rdf:about=""><dc:format>image/svg+xml</dc:format><dc:type
           rdf:resource="http://purl.org/dc/dcmitype/StillImage" /></cc:Work></rdf:RDF></metadata><defs
     id="defs6"><clipPath
       id="clipPath18"
       clipPathUnits="userSpaceOnUse"><path
         id="path16"
         d="M 0,1080 H 1920 V 0 H 0 Z" /></clipPath></defs><g
     transform="matrix(1.3333333,0,0,-1.3333333,0,1440)"
     id="g10"><g
       id="g12"><g
         clip-path="url(#clipPath18)"
         id="g14"><g
           transform="translate(719.1659,664.2097)"
           id="g20"><path
             id="path22"
             style="fill:#135585;fill-opacity:1;fill-rule:nonzero;stroke:none"
             d="m 0,0 57.791,4.455 1.094,-22.224 c 22.874,24.179 62.008,32.621 91.983,16.398 8.614,-4.662 12.818,-11.976 21.05,-16.227 0.172,-0.089 10.747,8.988 11.931,9.779 4.463,2.979 9.213,5.524 14.144,7.637 9.913,4.249 20.599,6.791 31.375,7.331 20.72,1.037 42.195,-5.912 54.831,-23.134 15.585,-21.242 13.611,-46.846 13.611,-71.687 v -64.732 c 0,-6.612 10e-4,-13.225 0,-19.837 0,-0.236 -3.098,-3.334 -3.333,-3.334 h -55.562 c -0.236,0 -3.334,3.098 -3.334,3.334 v 38.004 34.663 c 0,11.205 1.082,22.835 0.018,33.983 -0.798,8.361 -4.062,17.085 -11.101,21.669 -11.296,7.355 -27.139,4.1 -38.81,-0.548 -1.981,-0.789 -3.921,-1.988 -4.927,-3.869 -1.656,-3.098 -0.66,-7.496 -0.739,-10.877 -0.042,-1.794 -0.002,-3.594 -0.002,-5.389 v -12.93 -31.852 -56.075 c 0,-2.26 0,-4.52 0,-6.779 0,-0.236 -3.098,-3.334 -3.334,-3.334 h -55.562 c -0.235,0 -3.333,3.098 -3.333,3.334 V -63.34 c 0,1.487 -4.3,12.355 -5.623,14.379 -11.71,17.902 -49.939,4.897 -49.939,-1.044 v -122.236 c 0,-0.236 -3.098,-3.334 -3.334,-3.334 H 3.334 c -0.236,0 -3.334,3.098 -3.334,3.334 z" /></g><g
           transform="translate(407.8472,744.0555)"
           id="g24"><path
             id="path26"
             style="fill:#135585;fill-opacity:1;fill-rule:nonzero;stroke:none"
             d="m 0,0 c 3.614,-4.158 -11.478,-42.57 -11.017,-50.886 -32.995,6.79 -65.52,15.632 -98.323,1.656 -49.654,-21.157 -55.225,-108.508 -14.749,-140.433 32.404,-25.557 75.571,-16.372 111.758,-5.901 4.976,-1.681 11.99,-41.125 14.669,-48.593 -107.71,-41.136 -231.847,-0.863 -222.274,132.171 C -211.833,0.619 -92.713,30.275 0,0" /></g><g
           transform="translate(1601.4849,753.1083)"
           id="g28"><path
             id="path30"
             style="fill:#76b540;fill-opacity:1;fill-rule:nonzero;stroke:none"
             d="m 0,0 v -157.795 l 15.494,14.509 43.401,56.61 h 63.341 l -60.037,-76.634 68.926,-98.941 H 60.006 c -2.308,6.613 -6.787,15.85 -10.494,21.626 -6.962,10.845 -15.376,20.618 -22.717,31.21 -8.25,11.904 -14.98,28.727 -26.795,36.063 v -88.899 h -58.895 c -0.236,0 -3.334,3.098 -3.334,3.334 v 248.916 c 0.943,1.424 2.096,2.386 3.75,2.918 C -43.38,-2.229 -16.468,-2.162 0,0" /></g><g
           transform="translate(634.7238,566.4327)"
           id="g32"><path
             id="path34"
             style="fill:#135585;fill-opacity:1;fill-rule:nonzero;stroke:none"
             d="m 0,0 c -14.174,1.615 -51.413,-2.316 -55.135,-19.407 -7.312,-33.575 49.979,-26.66 54.648,-5.687 C 1.237,-17.349 -0.693,-7.997 0,0 M 59.995,-75.575 H 2.211 c -0.917,0 1.253,15.427 -3.32,17.767 -33.718,-35.668 -116.23,-30.303 -112.247,29.965 1.852,28.019 28.79,42.517 53.323,48.96 9.992,2.624 55.948,5.618 57.48,8.083 1.823,2.933 0.215,15.12 -1.369,19.107 -6.917,17.413 -39.308,13.465 -53.987,10.69 -8.544,-1.615 -28.631,-11.398 -32.829,-4.156 -4.671,8.058 -6.534,24.831 -11.507,34.017 53.069,21.091 152.167,32.97 159.996,-45.553 3.8,-38.115 -4.41,-80.611 2.244,-118.88" /></g><g
           transform="translate(1454.8137,566.4327)"
           id="g36"><path
             id="path38"
             style="fill:#76b540;fill-opacity:1;fill-rule:nonzero;stroke:none"
             d="m 0,0 c -14.748,0.755 -49.161,-0.397 -54.567,-17.665 -7.369,-23.541 16.012,-29.61 34.492,-23.388 C 3.983,-32.952 0.533,-22.815 0,0 M 59.995,-75.575 H 3.322 c -5.359,0 -1.926,16.862 -4.434,19.991 -26.259,-34.249 -104.904,-35.656 -111.66,15.038 -7.597,57 68.957,69.123 110.548,67.194 5.783,42.485 -36.506,36.422 -64.909,30.46 -6.07,-1.273 -19.292,-8.969 -22.909,-3.81 -3.547,5.058 -7.45,28.258 -12.203,35.56 39.67,15.645 106.631,27.465 141.121,-4.422 34.026,-31.458 11.031,-118.01 21.119,-160.011" /></g><g
           transform="translate(1334.7783,724.2274)"
           id="g40"><path
             id="path42"
             style="fill:#76b540;fill-opacity:1;fill-rule:nonzero;stroke:none"
             d="m 0,0 -195.64,-14.384 c -6.44,-3.308 -13.737,-7.099 -18.896,-12.219 -22.183,-22.013 -42.023,-57.285 -63.315,-81.138 l -13.27,-12.272 c -0.429,16.17 -4.2,32.456 -8.81,47.863 -2.235,7.467 -10.738,18.432 -8.658,26.085 0.628,2.309 23.276,27.723 27.227,32.949 22.365,29.582 38.779,64.134 80.227,68.679 28.417,3.117 109.539,3.383 137.227,-0.591 18.086,-2.596 32.432,-13.814 43.856,-27.262 z" /></g><g
           transform="translate(494.6968,753.1083)"
           id="g44"><path
             id="path46"
             style="fill:#135585;fill-opacity:1;fill-rule:nonzero;stroke:none"
             d="M 0,0 V -262.251 H -60.007 V -6.667 Z" /></g><g
           transform="translate(1341.4452,706.4248)"
           id="g48"><path
             id="path50"
             style="fill:#135585;fill-opacity:1;fill-rule:nonzero;stroke:none"
             d="M 0,0 C 1.049,-4.277 -1.568,-4.279 -3.732,-6.247 -30.51,-30.605 -56.65,-55.559 -83.858,-79.47 c -63.316,-7.308 -125.802,-21.242 -189.483,-24.962 l 32.182,42.247 c 11.989,10.386 21.177,25.78 32.198,36.698 9.935,9.842 14.174,10.14 27.867,12.138 31.241,4.559 70.064,6.369 102.221,8.903 C -52.674,-2.382 -26.278,-0.579 0,0" /></g><g
           transform="translate(1328.1207,581.9504)"
           id="g52"><path
             id="path54"
             style="fill:#135585;fill-opacity:1;fill-rule:nonzero;stroke:none"
             d="m 0,0 c 1.057,-1.01 0.561,-5.628 -3.073,-4.661 l -173.408,-37.323 c -11.904,0.342 -80.972,35.321 -94.015,43.694 -2.188,1.404 -3.979,-0.223 -2.855,4.974 l 200.848,28.247 z" /></g><g
           transform="translate(634.7238,566.4327)"
           id="g56"><path
             id="path58"
             style="fill:#fdfdfd;fill-opacity:1;fill-rule:nonzero;stroke:none"
             d="m 0,0 c -0.693,-7.997 1.237,-17.349 -0.487,-25.094 -4.669,-20.973 -61.96,-27.888 -54.648,5.687 C -51.413,-2.316 -14.174,1.615 0,0" /></g><g
           transform="translate(1454.8137,566.4327)"
           id="g60"><path
             id="path62"
             style="fill:#fdfdfd;fill-opacity:1;fill-rule:nonzero;stroke:none"
             d="m 0,0 c 0.533,-22.815 3.983,-32.952 -20.075,-41.053 -18.48,-6.222 -41.861,-0.153 -34.492,23.388 C -49.161,-0.397 -14.748,0.755 0,0" /></g><g
           transform="translate(1117.4801,511.9331)"
           id="g64"><path
             id="path66"
             style="fill:#ed1e79;fill-opacity:1;fill-rule:nonzero;stroke:none"
             d="M 0,0 V -1.09 C -0.823,-0.734 -1.646,-0.356 -2.469,0 Z" /></g><g
           transform="translate(1117.4801,443.1918)"
           id="g68"><path
             id="path70"
             style="fill:#76b540;fill-opacity:1;fill-rule:nonzero;stroke:none"
             d="m 0,0 v -52.045 c 0,-3.365 -2.727,-6.092 -6.092,-6.092 h -57.203 c -3.364,0 -6.091,2.727 -6.091,6.092 V 35.372 C -57.017,29.499 -46.028,20.533 -33.881,14.215 -21.379,7.697 -10.723,2.892 0,0" /></g><g
           transform="translate(1048.0908,568.6436)"
           id="g72"><path
             id="path74"
             style="fill:#76b540;fill-opacity:1;fill-rule:nonzero;stroke:none"
             d="m 0,0 c 37.819,-14.103 70.857,-50.037 113.84,-43.835 l 165.23,37.059 c 3.323,0.392 3.794,0.432 3.215,-3.227 -1.091,-6.903 -22.212,-50.715 -26.926,-55.335 -6.604,-6.473 -17.355,-9.071 -25.967,-11.815 -31.945,-10.18 -80.939,-23.146 -113.742,-28.498 -32.464,-5.297 -51.405,0.623 -80.139,15.593 C 23.372,-83.734 12.382,-74.775 0,-68.896 Z" /></g></g></g><text
       id="text78"
       style="font-variant:normal;font-weight:bold;font-stretch:normal;font-size:48.05210114px;font-family:'Yu Gothic';-inkscape-font-specification:YuGothic-Bold;writing-mode:lr-tb;fill:#135585;fill-opacity:1;fill-rule:nonzero;stroke:none"
       transform="matrix(1,0,0,-1,613.3921,312.791)"><tspan
         id="tspan76"
         y="0"
         x="0 36.519596 53.770298 94.422379 113.45101 149.97061 168.99924 204.22142 223.25006 263.56577 304.6503 321.90103 362.21674 396.28568 413.53638 447.60532 466.63394 503.15353 537.84717 555.09784 589.85876 623.12042 659.64001">A DIVISION OF FIVE STAR</tspan></text>
</g></svg>