<?xml version="1.0" encoding="UTF-8"?>
<svg id="Layer_1" xmlns="http://www.w3.org/2000/svg" version="1.1" viewBox="0 0 1536 1024">
  <!-- Generator: Adobe Illustrator 30.1.0, SVG Export Plug-In . SVG Version: 2.1.1 Build 136)  -->
  <defs>
    <style>
      .st0 {
        fill: #6e5532;
      }

      .st1 {
        fill: #4b6373;
      }
    </style>
  </defs>
  <polygon class="st1" points="1061.78 579.79 1009.9 580.04 1009.78 375.77 941.37 375.41 941.04 331.8 1133.56 331.71 1133.66 375.34 1061.85 375.69 1061.78 579.79"/>
  <path class="st0" d="M475.34,682.93c-1.7,20.67-32.27,15.27-45.21,15.8l.1-61.79c13.1-.12,43.1-4.45,45.06,15.85.95,9.79.91,19.56.04,30.15ZM464.26,658.24c.07-4.9-2.69-9.45-7.54-10.62-4.95-1.19-10.08-1.15-14.91-.05l-.17,40.78c4.91,1.19,9.12.86,13.71.21,11.77-1.67,8.69-14.26,8.91-30.32Z"/>
  <path class="st0" d="M1097.65,685.68c-3.4,18.57-35.11,16.09-46.83,6.72.65-3.25,4.09-6.87,7.1-7.9,6.9,3.33,14.26,6.38,22.28,4.41,4.66-1.15,7.12-4.43,6.75-8.7-.91-10.4-20.83-4.08-29.91-13.89-6.07-6.56-5.23-20.28,2.48-25.57,11.49-7.88,26.69-5.24,37.51,2.17-1.98,3.46-4.32,5.07-6.85,7.58-6.22-2.77-12.57-5.75-19.35-3.56-3.95,1.27-6.54,4.17-6.39,7.63.46,10.39,17.91,5.57,28.68,13.85,5.13,3.94,5.75,10.62,4.53,17.27Z"/>
  <path class="st0" d="M385.9,687.31c-7.87-.26-15.85-1.38-23.49.26-3.68.79-2.51,8.07-4.87,9.95-3.06,2.43-7.91,1.1-12.1.87l22.2-61.29c3.92-.58,7.43-.48,11.38.02l22.29,60.81c-3.38,1-8.21,2.1-11.25.06-2.44-2.05-2.07-6.18-4.17-10.68ZM382.29,676.35l-9.12-24.39-8.45,25.03c5.99.26,11.51,1.36,17.57-.64Z"/>
  <path class="st0" d="M903.86,665.17c2.38.47,1.17,6.73.78,8.78l-25.93.95-.15,22.95c-3.51,1.56-7.39,1.39-11.76.41l.4-61.27,41.72-.14c.5,3.51.45,6.41.05,9.91l-29.66.32c-1.53,5.57-1.26,11.34-.59,17.17,8.35,1.13,15.66-.95,25.15.93Z"/>
  <path class="st0" d="M722.62,698.51l-.51-26.5c-.08-4.3-4.03-6.36-7.09-6.68-3.27-.34-8.75.48-8.89,4.81l-.91,28c-3.8,1.15-7.43,1.27-11.02-.06l.05-41.24c4.91-2.73,10.42,1.77,14.31.55,9.44-2.96,21.82-2.34,24.09,9.09,2.06,10.38.23,21.26.77,31.67-3.69.88-6.31,1.03-10.8.35Z"/>
  <path class="st0" d="M1141.37,695.52c-4.01-3.38-4.21-9.11-2.42-14.09,5.01-13.93,31.6-.92,25.58-12.64-3.11-6.06-13.29-3.62-19.06-1.28l-5.45-6.44c7.25-5.59,17.12-6.54,26.12-3.79,15.7,4.81,7.32,25.19,10.77,40.55-4,3.79-9.78-1.26-13.25-.48-7.28,1.63-14.93,4.37-22.29-1.83ZM1164.18,681.74c-3.97-1.69-9.51-1.03-13.45.42-2.58.94-2.34,4.79-1.52,6.23,2.16,3.83,11.39,2.94,14.1.79,1.67-1.32,3.06-6.51.87-7.44Z"/>
  <path class="st0" d="M799.39,694.25c-7.76,7.25-23.79,6.66-30.54-.77-5.58-6.15-5.94-25.38-.51-31.53,6.99-7.92,22.76-8.48,30.43-1.44,7.5,6.88,8.17,26.69.62,33.75ZM788.55,665.89c-3.52-1.16-7.63-1.1-10.3,1.29-3.25,2.92-4.7,18.06,1.41,21.46,3.42,1.9,7.87,1.63,10.54-.38,4.8-3.63,5.19-20.11-1.64-22.37Z"/>
  <path class="st0" d="M665.34,699.17c-6.61.24-12.18-1.04-16.22-4.87-6.77-6.41-6.07-26.28-1.19-32.29,6.2-7.63,22-8.93,30.28-1.51,4.78,4.28,5.3,10.67,5.73,17.35.76,11.79-5.34,20.83-18.61,21.31ZM668.08,665.84c-3.68-1.23-7.75-1.13-10.39,1.27-3.38,3.08-4.62,18.21,1.5,21.56,3.22,1.76,7.78,1.64,10.5-.52,4.46-3.54,4.97-20.1-1.61-22.31Z"/>
  <path class="st0" d="M1009.78,689.78c2.79-.85,5.12-2.93,7.21-1.83,1.61.85,3.12,2.74,4.74,6.45-8.32,5.87-23.66,8.04-32.27-.95-7.23-7.55-7.04-22.48-1.07-30.75,6.4-8.86,20.69-9.23,28.31-2.68,6.24,5.37,6.86,14.38,5.35,21.13-9.55.41-17.51-.87-26.36.85.59,7.27,7.17,9.89,14.11,7.77ZM1012.54,673.5c-.61-7.88-5.41-9.08-9.81-8.86-4.77.23-7.36,3.5-6.85,9.27,5.47.08,11.04,1.09,16.67-.4Z"/>
  <path class="st0" d="M605.35,697.36c-9.94,3.76-20.49,2.11-29.54-3.24.28-2.08,3.63-6.27,5.85-5.81,1.62.33,21.04,6.89,20.59-2.1-.4-7.84-24.13-.65-24.94-16.67-.27-5.29,2.15-9.95,7.84-12.14,8.04-3.09,18.45-2.14,25.44,2.58.47,2-2.66,6.61-4.56,6.29-3.02-.51-18.01-4.93-18.46,1.86-.56,8.39,22.72.6,24.84,15.81.68,4.88-.74,11.04-7.04,13.43Z"/>
  <path class="st0" d="M827.28,697.4c-1.35,2.39-8.72,2.28-10.23.15l-.54-31.02c-3.68-1.29-5.5-2.25-5.77-5.86-.29-4.01,4.47-3.07,5.01-6.02l2.45-13.37c.92-5,10.93-5.2,16.52-4.24,1.66,1.1,1.92,6.59.35,7.98-1.63,1.45-6,.78-6.78,3.27-.63,2.01-1.9,6.55.96,7.87,2.22,1.03,5.67-.43,6.84,1.78.77,1.47.78,6.49-.03,6.65l-7.16,1.41c-4.6.91.3,21.51-1.62,31.4Z"/>
  <path class="st0" d="M968.54,657.93c1.04-2.79,7.67-1.45,11.18-.57l-15.34,40.16c-2.74,1.94-9.2,1.85-12.25.07l-14.63-40.87c2.87-.12,8.56-1.23,10.76.88l10.39,26.8,9.88-26.48Z"/>
  <path class="st0" d="M1122.06,686.4c.25,3.84,5.5,2.45,7.37,3.42,1.86.97,1.94,7.04.11,8.07-3.01,1.7-7.86.9-11.23.37-12.84-2.03-5.09-23.8-8.62-31.8-2.13-1.86-5.61-1.94-5.37-5.89.24-3.85,3.04-3.18,5.4-5.79,2.46-2.71-.13-7.64.95-11.73,3.41-.49,6.92-.33,10.79-.12l.49,12.69c2.21,1.73,5.64.15,8.08,1.57,1.61.93,1.12,5.89.04,7.39-1,1.4-6.03-.25-7.66,1.55-1.44,6.16-.86,12.72-.36,20.27Z"/>
  <path class="st0" d="M537.72,657.75c1.12-2.85,7.78-1.18,10.43-.5l-14.37,40.38c-3.07,1.84-9.23,1.8-12.29-.05l-15.25-40.22c3.38-.91,9.87-2.08,10.88.48l10.36,26.05,10.23-26.13Z"/>
  <path class="st0" d="M1214.8,666.38c-4.8-1.06-13.03-.95-14.64,5.04-2.36,8.81.62,18.14-1.15,27.19-3.66.51-7.38.22-10.94-.19l.07-41.39c4.51-1.53,9.43-.92,13.9,1.73,4.41-2.45,8.5-3.35,13.45-2.58.62,2.99,1.03,6.12-.69,10.2Z"/>
  <rect class="st0" x="487.46" y="656.39" width="11.27" height="42.51"/>
  <rect class="st0" x="555.95" y="656.63" width="11.29" height="42.3"/>
  <rect class="st0" x="606.68" y="672.06" width="42.36" height="11.26" transform="translate(-50.93 1304.37) rotate(-89.9)"/>
  <rect class="st0" x="903.25" y="672.05" width="42.33" height="11.35" transform="translate(245.78 1601.47) rotate(-89.94)"/>
  <path class="st0" d="M624.61,647.58c-3.64-.86-2.85-3.94-2.96-6.43-.09-2.15.74-4.27,4.16-4.28,2.76,0,6.78-.62,7.61,1.84.75,2.23,1.22,5.98-.45,8.03-1.3,1.58-5.14,1.59-8.36.84Z"/>
  <path class="st0" d="M920.72,647.49c-3.98-.78-3.68-9.8.09-10.39,3.16-.5,6.41-.84,8.33.3,2.25,1.34,1.58,5.72,1.2,7.95-.52,2.99-4.81,3.09-9.62,2.15Z"/>
  <path class="st0" d="M566.38,637.96c2.15,2.27,1.78,7.47.08,8.73-2.15,1.59-7.67,1.92-9.91.19-1.91-1.47-2.17-7.42.09-9.1,2.13-1.58,7.82-1.85,9.74.18Z"/>
  <path class="st0" d="M490.39,647.85c-3.69-.02-3.31-3.22-3.4-5.25-.1-2.3-.21-5.75,3.27-5.77,2.88-.02,6.72-.7,7.91.82,1.81,2.3,1.43,5.81.85,7.83-.86,3-4.64,2.4-8.63,2.38Z"/>
  <path class="st1" d="M1500.3,523.8l27.7,55.94-54.5.21-50.06-96.16c-12.19-1.18-23.51-.91-36.51-.33l-.19,96.4-51.16-.1-.14-247.06,106.32-.16c11.47-.02,22.07,1.7,32.67,4.79,41.54,13.23,54.33,56.59,44.12,95.83-5.39,20.74-19.76,36.02-40.53,44.27l22.28,46.36ZM1470.25,419.83c1.82-8.51,1.96-16.85,0-24.56-2.15-11.72-11.07-18.11-22.81-19.98l-60.38-.22.17,64.73,59.89-.08c11.36-1.59,20.48-7.9,23.13-19.89Z"/>
  <path class="st1" d="M1255.55,521.75l-89.83-.09-19.15,58.39-50.57-.17,85.89-247.09,57.93-.12,85.42,247.03-50.86.26-18.84-58.21ZM1244.08,486.07l-33.49-106.83-33.13,107.07,66.61-.24Z"/>
  <path class="st1" d="M902.14,567.85c-45.16,21.14-114.09,11.15-156.07-15.31l21.5-37.13c30.28,15.85,72.94,28.57,105.72,16.59,11.41-4.17,17.75-13.51,18.34-25.33.63-12.75-5.72-22.71-17.97-27.38-41.87-15.96-116.02-9.01-122.28-74.39-2.87-29.95,11.23-56.66,38.9-69.48,39.29-18.21,99.46-11.74,136.79,11.56l-20.24,34.7c-24.78-13.28-94.76-28.25-105.02,5.95-2.35,7.81-2.09,17.01,3.93,23.21,7.42,7.65,18.25,9.93,28.51,12.33,20.06,4.69,39.44,8.15,58.72,15.25,37.17,13.7,51.28,37.29,46.8,77.13-2.65,23.54-16.24,42.3-37.61,52.31Z"/>
  <path class="st0" d="M575.7,577.14l-55.97.52-54.01-98.23-34.87-.15-.15,97.96-47.21.27-.17-250.49,112.64.4c17.07.06,32.09,6.72,45.01,16.65,10.48,10.63,17.88,23.01,21.1,37.69,6.62,38.44-.6,78.82-42.75,93.16l56.38,102.23ZM514.06,418.61c3.41-10.11,2.9-20.04.45-29.66-2.88-10.02-11.46-16.59-22.17-17.21-20.34-1.18-40.22-.4-61.35-.53l-.19,64.01,59.01.25c10.97.05,20.58-5.96,24.26-16.84Z"/>
  <path class="st0" d="M320.81,574.37c-25.08,8.2-50.85,7.84-75.26.4-31.45-9.59-51.97-36.67-52.03-69.83l-.18-106.6c-.05-30.56,18.23-55.82,46.83-66.3,26.08-9.57,54.75-9.26,81.24-.09,29.32,10.16,48.63,36.27,49.32,67.81.79,36.01.99,70.79-.13,106.7-.99,31.68-19.43,57.99-49.79,67.91ZM309.79,529.24c10.13-6.91,13.05-18.95,13.41-30.2,1.01-31.45.76-61.82.04-93.28-.25-10.94-3.1-22.62-12.15-29.02-16.33-11.55-39.17-11.91-56.31-1.43-8.8,5.38-13.8,16.47-13.81,26.87l-.09,98.9c0,10.01,3.61,21.37,11.86,27.28,16.24,11.62,40.07,12.46,57.05.88Z"/>
  <path class="st0" d="M124.58,526.29c9.93-8.6,9.84-21.22,11.6-32.44l47.2.16c2.27,34.57-16.48,68.3-50.65,79.91-39.61,13.45-96.39,6-116.28-37.76-5.21-11.46-8.48-24.06-8.45-37.15l.21-97.8c.04-19.1,7.18-37.29,19.55-51.14,24.74-27.71,72.86-31,105.17-19.21,33.28,12.14,51.69,42.5,50.1,76.73l-47.46-.7c-.52-13.7-4.78-26.99-16.78-33.84-13.91-7.94-32.2-7.61-45.93.79-10.36,6.34-14.67,18.29-15.11,30.48-1.14,31.82-1.06,62.8-.02,94.7.34,10.39,3.07,21.55,11.28,28.24,15.42,12.56,40.13,12.38,55.55-.98Z"/>
  <path class="st0" d="M674.81,580.41l-58.78-102.7-77.68-.85c16.61-9.9,28.06-23.19,32.46-41.69l75.54-.39c8.29-1.74,16.59-4.24,20.72-12.06,6.83-12.95,6.45-29.49-1.23-42-4.15-6.77-12.07-8.24-19.41-9.84l-76.87-.16c-6.49-20.76-22.47-34.12-42.77-43.24l116.74-.59c10.48.33,20.04,1.38,29.98,4,46.56,12.27,57.7,63.14,45.04,103.16-7.3,23.07-24.42,32.55-45.33,40.42l59.69,105.44-58.09.5Z"/>
</svg>