<?xml version="1.0" encoding="UTF-8"?>
<svg id="Layer_1" xmlns="http://www.w3.org/2000/svg" version="1.1" viewBox="0 0 792 532">
  <!-- Generator: Adobe Illustrator 30.1.0, SVG Export Plug-In . SVG Version: 2.1.1 Build 136)  -->
  <defs>
    <style>
      .st0, .st1 {
        fill: #625e57;
      }

      .st2 {
        fill: none;
        stroke: #625e57;
        stroke-linecap: round;
        stroke-linejoin: round;
        stroke-width: .12px;
      }

      .st1 {
        font-family: Calibri-Bold, Calibri;
        font-size: 42.62px;
        font-weight: 700;
        letter-spacing: .2em;
      }

      .st3 {
        fill: #0f6cb0;
      }
    </style>
  </defs>
  <path class="st3" d="M11.86,461.83v-3.55h14.21v-95.89h-14.21v-3.55h85.23l1.18,26.04h-2.37c-2.37-9.47-5.92-16.57-9.47-18.94-3.55-2.37-10.65-3.55-20.12-3.55h-22.49v43.8c9.47,0,15.39,0,17.76-2.37,3.55-1.18,5.92-5.92,5.92-13.02h4.74v37.88h-4.74c0-7.1-2.37-11.84-5.92-14.21s-9.47-3.55-17.76-3.55v47.35h14.21v3.55H11.86Z"/>
  <polygon class="st3" points="148 461.83 100.65 461.83 100.65 458.28 116.04 458.28 116.04 362.4 100.65 362.4 100.65 358.85 148 358.85 148 362.4 132.61 362.4 132.61 458.28 148 458.28 148 461.83"/>
  <polygon class="st3" points="150.37 358.85 194.17 358.85 194.17 362.4 181.14 362.4 210.74 439.34 239.15 362.4 222.58 362.4 222.58 358.85 255.72 358.85 255.72 362.4 243.88 362.4 207.19 463.02 202.45 463.02 163.39 362.4 150.37 362.4 150.37 358.85"/>
  <path class="st3" d="M260.46,461.83v-3.55h15.39v-95.89h-15.39v-3.55h87.6v24.86h-3.55c-1.18-8.29-4.74-14.21-8.29-16.57-4.74-3.55-11.84-4.74-21.31-4.74h-22.49v43.8c10.65,1.18,16.57,0,18.94-2.37,3.55-2.37,5.92-7.1,7.1-14.21h3.55v39.06h-3.55c-1.18-7.1-2.37-13.02-5.92-15.39-4.74-2.37-10.65-3.55-20.12-3.55v48.53h21.31c11.84,0,20.12-1.18,24.86-4.73,4.74-3.55,8.29-10.65,10.65-21.31h3.55l-2.37,29.59h-89.97Z"/>
  <path class="st3" d="M400.14,461.83h-2.37v-26.04h2.37c5.92,15.39,17.76,23.68,34.33,24.86,17.76-1.18,27.23-9.47,28.41-22.49,0-5.92-1.18-9.47-2.37-10.65-2.37-3.55-7.1-5.92-13.02-8.29-2.37,0-8.29-2.37-17.76-5.92-11.84-2.37-17.76-4.74-17.76-4.74-9.47-5.92-14.21-14.2-14.21-23.68,0-5.92,2.37-13.02,7.1-17.76,5.92-7.1,14.21-11.84,26.04-11.84,7.1,0,14.21,2.37,23.68,7.1l7.1-3.55h1.18v23.68h-3.55c-4.74-14.21-14.21-22.49-28.41-22.49-15.39,1.18-23.68,7.1-26.04,17.76,2.37,10.65,11.84,16.57,27.23,18.94,22.49,1.18,35.51,11.84,39.06,33.15-1.18,21.31-13.02,31.96-36.7,33.15-11.84,0-21.31-2.37-27.23-7.1l-7.1,5.92Z"/>
  <path class="st3" d="M496.03,461.83v-3.55h14.21v-95.89h-11.84c-5.92,0-10.65,1.18-14.21,4.74-2.37,3.55-5.92,9.47-7.1,20.12h-4.74l2.37-28.41h88.78l1.18,28.41h-3.55c-2.37-16.57-10.65-24.86-26.04-24.86h-8.29v95.89h15.39v3.55h-46.17Z"/>
  <path class="st3" d="M563.5,461.83v-3.55h14.21l37.88-101.8h7.1l35.51,101.8h11.84v3.55h-43.8v-3.55h14.21l-11.84-34.33h-33.15l-11.84,34.33h14.21v3.55h-34.33ZM626.24,419.22l-14.21-41.43-15.39,41.43h29.59Z"/>
  <path class="st3" d="M674.78,461.83v-3.55h14.21v-95.89h-14.21v-3.55h52.09c23.68,0,36.7,7.1,39.06,21.31,0,16.57-11.84,24.86-36.7,26.04,13.02,2.37,21.31,7.1,24.86,11.84,4.74,4.73,7.1,13.02,7.1,23.68-1.18,8.29,1.18,14.21,4.74,16.57,2.37,1.18,8.29,1.18,14.21-1.18v3.55c-4.74,1.18-9.47,2.37-14.21,2.37-11.84,0-18.94-4.73-22.49-13.02,0,0-1.18-4.73-1.18-11.84-1.18-4.73-1.18-9.47-1.18-11.84,0-11.84-8.29-18.94-24.86-18.94h-10.65v50.9h14.21v3.55h-44.98ZM705.56,403.83h9.47c13.02,1.18,21.31-1.18,24.86-4.73,4.74-3.55,7.1-9.47,7.1-17.76,0-13.02-8.29-20.12-24.86-18.94h-16.57v41.43Z"/>
  <path class="st2" d="M190.62,315.05h407.22H190.62Z"/>
  <path class="st0" d="M190.62,315.05h407.22l-113.64-8.29h-178.75l-114.83,8.29ZM190.62,315.05h407.22H190.62Z"/>
  <path class="st0" d="M403.69,204.96h-1.18v2.37l1.18-2.37ZM384.75,204.96h1.18v2.37l-1.18-2.37ZM408.43,123.27h0l-2.37,8.29h-3.55v7.1c1.18,3.55,1.18,5.92,1.18,9.47h49.72l-2.37-16.57h-43.8v-2.37h42.62l-1.18-2.37h-40.25v-2.37h39.06l4.74-7.1,11.84-1.18h15.39-27.23l-4.74,5.92-39.06,1.18ZM382.39,131.56h3.55v3.55c0,1.18,0,2.37-1.18,3.55,0,3.55,0,5.92-1.18,9.47h-48.53l2.37-16.57h43.8v-2.37h-42.62l1.18-2.37h40.25v-2.37h-39.06l-4.74-7.1-11.84-1.18h-15.39,27.23l4.74,5.92,39.06,1.18,2.37,8.29ZM330.3,142.22h-9.47l1.18-1.18h8.29l3.55-16.57-18.94,1.18,3.55,15.39h1.18c-1.18,1.18-2.37,3.55-2.37,4.74v-4.74l-1.18-3.55h-8.29l7.1,11.84c-10.65,22.49-24.86,43.8-41.43,62.74-17.76,18.94-36.7,36.7-56.82,53.27-22.49,17.76-46.17,34.33-71.03,48.53h14.21c2.37,0,3.55-1.18,5.92-2.37,2.37-1.18,3.55-2.37,5.92-3.55,5.92-3.55,11.84-8.29,16.57-11.84h1.18v16.57l2.37-18.94c4.74-3.55,9.47-7.1,14.21-11.84l1.18,29.59,2.37-31.96c4.74-3.55,9.47-8.29,14.21-11.84l1.18,39.06,1.18-41.43v-1.18c4.74-3.55,8.29-7.1,13.02-10.65l1.18,46.17,1.18-48.53c3.55-3.55,7.1-7.1,10.65-11.84h1.18v62.74l2.37-65.11c3.55-3.55,5.92-7.1,9.47-9.47v-1.18l1.18,72.21,1.18-74.58c3.55-3.55,5.92-7.1,8.29-9.47l1.18-1.18v82.86l2.37-85.23v-1.18c2.37-2.37,5.92-5.92,8.29-9.47v-1.18l1.18,92.33,2.37-95.89c2.37-3.55,4.74-7.1,8.29-10.65v-1.18l1.18,105.36,1.18-108.91c3.55-4.73,5.92-9.47,8.29-13.02v60.37l-1.18,24.86-1.18,36.7-3.55,11.84v9.47l23.68-1.18v-8.29l-2.37-11.84,3.55-66.29-1.18-14.21,2.37-61.56h-10.65v-1.18h10.65v-3.55ZM325.57,128.01c-1.18,3.55-1.18,7.1-2.37,9.47h3.55v-11.84l-5.92,1.18c1.18,2.37,1.18,4.74,1.18,7.1,1.18-2.37,1.18-3.55,2.37-5.92h1.18ZM316.1,163.52v-9.47q1.18-1.18,1.18-2.37l-2.37,34.33-1.18,18.94v3.55l-1.18,4.73h-1.18l1.18-50.9c1.18-2.37,2.37-4.73,3.55-7.1v8.29ZM388.31,128.01c-5.92,43.8-13.02,87.6-23.68,130.21-4.74,18.94-10.65,39.06-17.76,56.82h11.84c3.55-13.02,5.92-26.04,9.47-39.06v35.51h1.18v-40.25c1.18-8.29,2.37-15.39,3.55-23.68h1.18v63.92-69.84c2.37-9.47,3.55-18.94,4.74-28.41v98.25h1.18v-104.17s9.47-72.21,10.65-79.31h-2.37ZM376.47,196.67c-2.37-5.92-7.1-10.65-11.84-15.39h-1.18c-2.37,2.37-4.74,4.73-7.1,7.1-2.37,2.37-4.74,5.92-7.1,9.47-3.55,5.92-7.1,13.02-7.1,18.94,0,1.18-1.18,2.37-1.18,3.55v2.37-1.18h-2.37v-9.47c0-1.18,1.18-2.37,1.18-3.55v-3.55h1.18v-2.37s0-1.18,1.18-1.18v-2.37h1.18v-2.37h1.18v-1.18q0-1.18,1.18-1.18v-1.18s0-1.18,1.18-1.18v-1.18h1.18v-1.18q1.18-1.18,2.37-2.37s0-1.18,1.18-1.18q0-1.18,1.18-1.18,0-1.18,1.18-1.18,0-1.18,1.18-2.37s1.18,0,1.18-1.18l1.18-1.18c1.18,0,1.18-1.18,2.37-1.18,0,0,0-1.18,1.18-1.18l1.18-1.18q0,1.18,1.18,1.18c2.37,2.37,4.74,4.73,8.29,8.29,0,1.18,1.18,1.18,1.18,2.37,2.37,2.37,3.55,3.55,4.74,5.92,0,1.18-1.18,2.37-1.18,3.55ZM395.41,113.81h13.02v3.55h-28.41v-3.55h14.21M314.91,136.3v-1.18h-7.1v1.18h7.1ZM316.1,133.93l-2.37-9.47v-1.18h20.12l3.55,4.74,1.18-2.37-2.37-5.92h-27.23l7.1,14.21ZM385.94,222.71v1.18h-3.55v-1.18h3.55ZM383.57,227.45l-1.18-1.18,1.18-1.18h2.37v1.18h-2.37v1.18ZM387.12,165.89c1.18-5.92,1.18-11.84,2.37-17.76v-1.18h9.47v1.18c0,5.92,1.18,11.84,2.37,17.76v124.3l2.37,10.65-1.18,8.29h-17.76v-8.29l2.37-10.65v-124.3ZM394.22,145.77h-4.74c0-1.18,0-2.37,1.18-3.55h7.1c0,1.18,1.18,2.37,1.18,3.55h-4.74ZM394.22,141.03h-3.55v-3.55h7.1v3.55h-3.55ZM332.67,223.9h7.1l3.55,4.73h-1.18l-2.37-3.55h-7.1v-1.18ZM383.57,203.77c-1.18,2.37-1.18,3.55-1.18,4.73,1.18,3.55,2.37,9.47,2.37,13.02h1.18v-5.92c-1.18-3.55-1.18-8.29-2.37-11.84ZM385.94,227.45v62.74l-1.18,7.1v-69.84h1.18ZM340.95,229.81v4.74c-1.18,9.47-1.18,20.12-1.18,30.78v1.18c0,9.47,0,17.76-1.18,27.23v15.39h-7.1v-8.29l-1.18-10.65,1.18-30.78,1.18-33.15h5.92l2.37,3.55ZM395.41,136.3h-4.74,2.37v-9.47h2.37v9.47h2.37-2.37ZM385.94,130.38v-3.55h1.18c0,1.18,0,2.37-1.18,3.55ZM381.2,124.46h26.04l-2.37,5.92h-2.37l1.18-4.74h-18.94v4.74h-1.18l-2.37-5.92ZM381.2,124.46l-1.18-4.73h28.41l-1.18,4.73v-1.18h-26.04v1.18ZM335.04,152.87v-3.55h48.53v3.55h-48.53ZM335.04,155.24h48.53c-2.37,8.29-3.55,17.76-4.74,27.23h-1.18v-2.37h-2.37v-3.55h-1.18v-2.37h-2.37v-1.18h-2.37v-2.37h-3.55l-3.55,3.55-3.55-4.74h-3.55v2.37h-2.37v2.37h-2.37v2.37h-2.37v2.37h-2.37v2.37h-2.37v2.37h-2.37v2.37h-1.18v2.37h-2.37v3.55h-1.18v3.55h-1.18v2.37h-1.18v3.55h-1.18v2.37h-1.18v3.55-7.1l3.55-44.98ZM364.63,165.89v3.55l-2.37,2.37-2.37-2.37v-3.55h4.74ZM361.08,167.07h2.37v2.37l-1.18,1.18-1.18-1.18v-2.37ZM385.94,177.73v15.39l-1.18,1.18c0-5.92,1.18-11.84,1.18-16.57ZM383.57,202.59l2.37-1.18v2.37h-1.18c-1.18,0-1.18-1.18-1.18-1.18ZM385.94,208.51l1.18,4.73c-1.18,0-1.18-4.73-1.18-4.73ZM331.48,222.71v1.18l-1.18,35.51-1.18,30.78,1.18,10.65v8.29h-1.18v-8.29l-2.37-11.84,3.55-66.29-1.18-14.21,2.37-59.19,2.37,4.73-3.55,46.17v17.76l1.18,2.37v2.37ZM333.85,149.32l-2.37-5.92v2.37l2.37,5.92v-2.37ZM333.85,145.77l2.37-15.39-2.37-4.74-2.37,15.39,2.37,4.74ZM385.94,197.85v2.37l-2.37,1.18v-2.37l2.37-1.18ZM384.75,195.49l1.18-1.18v2.37l-2.37,1.18v-2.37h1.18ZM377.65,189.57v1.18q-1.18-1.18-2.37-2.37l3.55-1.18c-1.18,0-1.18,2.37-1.18,2.37ZM378.84,184.83l-3.55,2.37c-1.18,0-1.18-1.18-1.18-1.18l3.55-2.37h1.18v1.18ZM372.92,184.83l-1.18-1.18c1.18-1.18,2.37-2.37,3.55-2.37h1.18v1.18l-3.55,2.37ZM338.59,206.14h0q0-1.18,1.18-1.18v-1.18l-5.92-1.18v2.37l4.74,1.18ZM332.67,204.96l5.92,2.37v1.18l-5.92-1.18v-2.37ZM350.42,184.83l-3.55-3.55v-1.18h1.18l2.37,1.18,1.18,1.18v1.18l-1.18,1.18ZM350.42,177.73l3.55,2.37v1.18h-1.18v1.18l-3.55-3.55v-1.18h1.18ZM352.79,175.36l2.37,2.37,1.18,1.18q-1.18,0-1.18,1.18l-3.55-3.55v-1.18h1.18ZM355.16,172.99l3.55,3.55-1.18,1.18-3.55-3.55v-1.18h1.18ZM335.04,199.04v2.37l4.74,1.18v-1.18h1.18l-1.18-1.18-4.74-1.18ZM336.22,197.85l4.74,2.37v-1.18h1.18v-1.18l-3.55-1.18h-2.37v1.18ZM337.4,195.49h1.18l3.55,1.18c1.18,0,1.18-1.18,1.18-1.18l-4.74-2.37h-1.18v2.37ZM338.59,189.57v2.37l4.74,2.37s1.18,0,1.18-1.18l-4.74-3.55h-1.18ZM342.14,187.2h-1.18v2.37l4.74,2.37v-1.18h1.18l-4.74-3.55ZM348.06,187.2v1.18l-1.18,1.18-4.74-3.55v-1.18h1.18l4.74,2.37ZM344.51,182.46h1.18l4.74,2.37c0,1.18-1.18,1.18-1.18,1.18v1.18l-2.37-1.18-2.37-2.37v-1.18ZM337.4,217.98h-5.92v-2.37h3.55s1.18,1.18,2.37,1.18v1.18ZM331.48,219.16h5.92v2.37h-4.74l-1.18-2.37ZM331.48,210.87v-2.37l5.92,1.18v2.37l-5.92-1.18ZM356.34,170.63h1.18l3.55,4.74h-1.18l-3.55-3.55v-1.18ZM374.1,180.1l-3.55,2.37s0-1.18-1.18-1.18l3.55-3.55h1.18v2.37ZM372.92,177.73l-4.74,2.37s0-1.18-1.18-1.18l3.55-3.55h2.37v2.37ZM370.55,175.36l-3.55,2.37q-1.18,0-1.18-1.18l2.37-2.37h2.37v1.18ZM364.63,176.55l-1.18-1.18,2.37-3.55h2.37v1.18c-1.18,1.18-2.37,2.37-3.55,3.55ZM331.48,214.43h0v-2.37l5.92,1.18v2.37c-1.18-1.18-3.55-1.18-4.74-1.18h-1.18ZM458.15,142.22h8.29v-1.18h-9.47l-2.37-16.57,18.94,1.18-3.55,15.39h-1.18c1.18,1.18,1.18,3.55,2.37,4.74v-4.74l1.18-3.55h7.1l-5.92,11.84c10.65,22.49,24.86,43.8,41.43,62.74,17.76,18.94,36.7,36.7,56.82,53.27,22.49,17.76,46.17,34.33,71.03,48.53h-15.39c-1.18,0-2.37-1.18-4.74-2.37-2.37-1.18-4.74-2.37-5.92-3.55-5.92-3.55-11.84-8.29-16.57-11.84h-1.18v16.57l-2.37-18.94c-4.74-3.55-9.47-7.1-14.21-11.84h-1.18v29.59l-2.37-31.96c-4.74-3.55-9.47-8.29-14.21-11.84l-1.18,39.06-1.18-41.43v-1.18c-4.74-3.55-8.29-7.1-13.02-10.65l-1.18,46.17-1.18-48.53c-3.55-3.55-7.1-7.1-10.65-11.84h-1.18v62.74l-2.37-65.11c-3.55-3.55-5.92-7.1-9.47-9.47v-1.18l-1.18,72.21-1.18-74.58c-3.55-3.55-5.92-7.1-8.29-9.47l-1.18-1.18-1.18,82.86-1.18-85.23v-1.18c-3.55-2.37-5.92-5.92-8.29-9.47v-1.18l-1.18,92.33-2.37-95.89c-2.37-3.55-4.74-7.1-8.29-10.65v-1.18l-1.18,105.36-1.18-108.91c-3.55-4.73-5.92-8.29-8.29-13.02v60.37l1.18,24.86,1.18,36.7,3.55,11.84v9.47l-23.68-1.18v-8.29l1.18-11.84-2.37-66.29,1.18-14.21-2.37-61.56h10.65v-1.18h-10.65v-3.55ZM462.88,128.01c1.18,3.55,1.18,5.92,2.37,9.47h-3.55l-1.18-11.84,5.92,1.18v7.1c-1.18-2.37-2.37-3.55-2.37-5.92h-1.18ZM472.35,163.52v-9.47c-1.18,0-1.18-1.18-1.18-1.18v-1.18l2.37,34.33,1.18,18.94v3.55l1.18,4.73h1.18l-1.18-50.9c-1.18-2.37-2.37-3.55-2.37-5.92l-1.18-1.18v8.29ZM400.14,128.01c5.92,43.8,13.02,87.6,23.68,130.21,4.74,18.94,10.65,39.06,17.76,56.82h-11.84c-3.55-13.02-7.1-26.04-9.47-39.06v35.51h-1.18v-40.25c-1.18-8.29-2.37-15.39-4.74-23.68v63.92h-1.18v-69.84c-1.18-9.47-2.37-18.94-3.55-28.41v98.25h-1.18v-104.17s-9.47-72.21-10.65-79.31h2.37ZM411.98,196.67c2.37-5.92,7.1-10.65,11.84-15.39h1.18c2.37,2.37,4.74,4.73,7.1,7.1,2.37,2.37,4.74,5.92,7.1,9.47,3.55,5.92,7.1,13.02,7.1,18.94v3.55c0,1.18,1.18,1.18,1.18,2.37v-1.18h2.37v-9.47c-1.18-1.18-1.18-2.37-1.18-3.55v-2.37c-1.18,0-1.18-1.18-1.18-1.18v-2.37c-1.18,0-1.18-1.18-1.18-1.18v-2.37h-1.18v-2.37h-1.18v-1.18c0-1.18-1.18-1.18-1.18-1.18v-1.18l-1.18-1.18v-1.18h-1.18v-1.18h-1.18q0-1.18-1.18-2.37l-1.18-1.18c0-1.18-1.18-1.18-1.18-1.18q0-1.18-1.18-1.18c0-1.18-1.18-1.18-1.18-2.37,0,0-1.18,0-1.18-1.18l-1.18-1.18c-1.18,0-1.18-1.18-2.37-1.18,0,0,0-1.18-1.18-1.18l-1.18-1.18c0,1.18-1.18,1.18-1.18,1.18-2.37,2.37-5.92,4.73-8.29,8.29,0,1.18-1.18,1.18-1.18,2.37-2.37,2.37-3.55,3.55-4.74,5.92,0,1.18,0,2.37,1.18,3.55ZM473.54,136.3v-1.18h7.1v1.18h-7.1ZM472.35,133.93l2.37-9.47v-1.18h-21.31l-2.37,4.74-1.18-2.37,2.37-5.92h27.23l-7.1,14.21ZM402.51,222.71v1.18h3.55v-1.18h-3.55ZM404.88,227.45l1.18-1.18-1.18-1.18h-2.37v1.18h2.37v1.18ZM455.78,223.9h-8.29l-2.37,4.73h1.18l2.37-3.55h7.1v-1.18ZM404.88,203.77c1.18,2.37,1.18,3.55,1.18,4.73-1.18,3.55-2.37,9.47-2.37,13.02h-1.18v-5.92c0-3.55,1.18-8.29,2.37-11.84ZM402.51,227.45v62.74l1.18,7.1v-69.84h-1.18ZM447.49,229.81v4.74c1.18,9.47,1.18,20.12,1.18,30.78v28.41c1.18,5.92,1.18,10.65,1.18,15.39h7.1v-8.29l1.18-10.65-1.18-30.78-1.18-33.15h-5.92l-2.37,3.55ZM401.33,130.38l1.18-3.55h-1.18v3.55ZM453.41,152.87v-3.55h-48.53v3.55h48.53ZM453.41,155.24h-48.53c1.18,8.29,3.55,17.76,4.74,27.23v-2.37h2.37v-3.55h2.37v-2.37h2.37v-1.18h2.37v-2.37h3.55l3.55,3.55,3.55-4.74h3.55v2.37h2.37v2.37h2.37v2.37h2.37v2.37h2.37v2.37h2.37v2.37h2.37v2.37h1.18v2.37h2.37v3.55h1.18v3.55h1.18v2.37h1.18v3.55h1.18v2.37h1.18v3.55-7.1l-3.55-44.98ZM423.82,165.89v3.55l1.18,2.37h1.18q1.18-1.18,2.37-2.37v-3.55h-4.74ZM427.37,167.07h-2.37v2.37l1.18,1.18,1.18-1.18v-2.37ZM402.51,177.73v15.39l1.18,1.18c0-5.92-1.18-11.84-1.18-16.57ZM404.88,202.59l-2.37-1.18v2.37h1.18l1.18-1.18ZM402.51,208.51l-1.18,4.73,1.18-4.73ZM456.96,222.71v1.18l1.18,35.51,1.18,30.78-1.18,10.65v8.29h1.18v-8.29l1.18-11.84-2.37-66.29,1.18-14.21-2.37-59.19-2.37,4.73,3.55,46.17v14.21c0,1.18,0,2.37-1.18,3.55v4.73ZM454.6,149.32l2.37-5.92v2.37l-2.37,5.92v-2.37ZM454.6,145.77l-3.55-15.39,2.37-4.74,2.37,15.39-1.18,4.74ZM402.51,197.85v2.37l2.37,1.18v-2.37l-2.37-1.18ZM403.69,195.49l-1.18-1.18v2.37l2.37,1.18c0-1.18-1.18-2.37-1.18-2.37ZM410.8,189.57v1.18q1.18-1.18,2.37-2.37l-3.55-1.18,1.18,2.37ZM409.61,184.83l3.55,2.37,1.18-1.18-3.55-2.37h-1.18v1.18ZM415.53,184.83l1.18-1.18c-1.18-1.18-2.37-2.37-3.55-2.37h-2.37v1.18l4.74,2.37ZM449.86,206.14h0l-1.18-1.18v-1.18l5.92-1.18v2.37l-4.74,1.18ZM455.78,204.96l-5.92,2.37v1.18l5.92-1.18v-2.37ZM436.84,184.83l4.74-3.55v-1.18h-1.18l-2.37,1.18s-1.18,0-1.18,1.18h-1.18l1.18,1.18v1.18ZM438.02,177.73l-3.55,2.37v1.18h1.18v1.18l3.55-3.55v-1.18h-1.18ZM435.66,175.36l-3.55,2.37v1.18s1.18,0,1.18,1.18l3.55-3.55v-1.18h-1.18ZM433.29,172.99l-3.55,3.55,1.18,1.18,3.55-3.55v-1.18h-1.18ZM453.41,199.04v2.37l-4.74,1.18-1.18-1.18,1.18-1.18,3.55-1.18h1.18ZM452.23,197.85l-4.74,2.37v-1.18h-1.18v-1.18l3.55-1.18h2.37v1.18ZM451.05,195.49h-1.18l-3.55,1.18h-1.18v-1.18l4.74-2.37h1.18v2.37ZM449.86,189.57v2.37l-4.74,2.37h-1.18v-1.18l4.74-3.55h1.18ZM446.31,187.2h1.18v2.37l-4.74,2.37v-1.18h-1.18l4.74-3.55ZM440.39,187.2v1.18s1.18,0,1.18,1.18l4.74-3.55v-1.18h-2.37l-3.55,2.37ZM443.94,182.46h-1.18l-4.74,2.37q0,1.18,1.18,1.18v1.18l2.37-1.18,2.37-2.37v-1.18ZM451.05,217.98h4.74l1.18-2.37h-3.55s-1.18,1.18-2.37,1.18v1.18ZM455.78,219.16h-4.74v2.37h4.74v-2.37ZM455.78,210.87v-2.37l-5.92,1.18c0,1.18,1.18,1.18,1.18,1.18v1.18l4.74-1.18ZM432.11,170.63h-2.37l-2.37,4.74h1.18l3.55-3.55v-1.18ZM413.16,180.1l4.74,2.37s0-1.18,1.18-1.18l-3.55-3.55h-2.37v2.37ZM415.53,177.73l3.55,2.37c1.18,0,1.18-1.18,2.37-1.18l-3.55-3.55h-2.37v2.37ZM417.9,175.36l3.55,2.37q1.18,0,1.18-1.18l-2.37-2.37h-2.37v1.18ZM423.82,176.55c0-1.18,1.18-1.18,1.18-1.18l-2.37-3.55h-2.37v1.18c1.18,1.18,2.37,2.37,3.55,3.55ZM455.78,214.43h1.18v-2.37l-5.92,1.18v2.37c1.18-1.18,3.55-1.18,4.74-1.18Z"/>
  <polygon class="st3" points="394.22 10.82 407.25 49.88 447.49 49.88 414.35 74.74 427.37 112.62 394.22 88.95 361.08 112.62 374.1 73.56 340.95 49.88 381.2 49.88 394.22 10.82"/>
  <text class="st1" transform="translate(313.93 523.64)"><tspan x="0" y="0">GROUP</tspan></text>
</svg>