<?xml version="1.0" encoding="UTF-8" standalone="no"?>
<svg
   xmlns:dc="http://purl.org/dc/elements/1.1/"
   xmlns:cc="http://creativecommons.org/ns#"
   xmlns:rdf="http://www.w3.org/1999/02/22-rdf-syntax-ns#"
   xmlns:svg="http://www.w3.org/2000/svg"
   xmlns="http://www.w3.org/2000/svg"
   viewBox="0 0 347.11066 192"
   height="192"
   width="347.11066"
   xml:space="preserve"
   id="svg2"
   version="1.1"><metadata
     id="metadata8"><rdf:RDF><cc:Work
         rdf:about=""><dc:format>image/svg+xml</dc:format><dc:type
           rdf:resource="http://purl.org/dc/dcmitype/StillImage" /></cc:Work></rdf:RDF></metadata><defs
     id="defs6"><clipPath
       id="clipPath14"
       clipPathUnits="userSpaceOnUse"><path
         id="path12"
         d="M 0,0 H 144 V 260.333 H 0 Z" /></clipPath></defs><g
     clip-path="url(#clipPath14)"
     transform="matrix(0,1.3333333,1.3333333,0,0,0)"
     id="g10"><g
       transform="translate(105.452,65.084)"
       id="g16"><path
         id="path18"
         style="fill:#9eba46;fill-opacity:1;fill-rule:nonzero;stroke:none"
         d="m 0,0 2.99,-2.09 h 2.44 c 0.174,0 0.318,-0.056 0.435,-0.17 C 5.982,-2.374 6.04,-2.51 6.04,-2.67 6.04,-2.837 5.982,-2.979 5.865,-3.095 5.748,-3.212 5.604,-3.271 5.43,-3.271 H 2.85 L 0.09,-5.351 C -0.07,-5.47 -0.226,-5.53 -0.38,-5.53 c -0.174,0 -0.318,0.068 -0.435,0.205 -0.116,0.137 -0.175,0.281 -0.175,0.434 0,0.187 0.094,0.351 0.28,0.491 l 2.43,1.759 -2.41,1.651 c -0.199,0.139 -0.3,0.306 -0.3,0.5 0,0.16 0.06,0.3 0.181,0.42 0.119,0.12 0.266,0.179 0.439,0.179 C -0.236,0.109 -0.113,0.073 0,0" /></g><g
       transform="translate(106.777,71.104)"
       id="g20"><path
         id="path22"
         style="fill:#9eba46;fill-opacity:1;fill-rule:nonzero;stroke:none"
         d="m 0,0 c -0.363,-0.18 -0.651,-0.43 -0.865,-0.75 -0.213,-0.32 -0.32,-0.68 -0.32,-1.08 0,-0.407 0.105,-0.769 0.315,-1.085 0.21,-0.316 0.498,-0.564 0.865,-0.74 0.367,-0.177 0.774,-0.265 1.22,-0.265 0.446,0 0.854,0.088 1.22,0.265 0.367,0.176 0.655,0.424 0.865,0.74 0.21,0.316 0.316,0.678 0.316,1.085 0,0.4 -0.108,0.76 -0.321,1.08 C 3.082,-0.43 2.793,-0.18 2.43,0 2.067,0.18 1.661,0.269 1.215,0.269 0.769,0.269 0.364,0.18 0,0 Z M 3.031,1.13 C 3.58,0.837 4.015,0.432 4.335,-0.085 4.656,-0.602 4.815,-1.184 4.815,-1.83 4.815,-2.477 4.656,-3.059 4.335,-3.575 4.015,-4.092 3.58,-4.495 3.031,-4.785 2.48,-5.075 1.875,-5.22 1.215,-5.22 c -0.66,0 -1.264,0.145 -1.815,0.435 -0.55,0.29 -0.985,0.693 -1.305,1.21 -0.32,0.516 -0.479,1.098 -0.479,1.745 0,0.646 0.159,1.228 0.479,1.745 0.32,0.517 0.755,0.922 1.305,1.215 0.551,0.293 1.155,0.44 1.815,0.44 0.66,0 1.265,-0.147 1.816,-0.44" /></g><g
       transform="translate(104.652,79.613)"
       id="g24"><path
         id="path26"
         style="fill:#9eba46;fill-opacity:1;fill-rule:nonzero;stroke:none"
         d="m 0,0 c 0.114,0.106 0.26,0.16 0.44,0.16 h 3.62 c 0.554,0 1.044,-0.116 1.471,-0.349 0.426,-0.234 0.759,-0.561 1,-0.981 C 6.77,-1.59 6.89,-2.069 6.89,-2.609 6.89,-3.149 6.77,-3.632 6.531,-4.055 6.29,-4.478 5.957,-4.807 5.531,-5.04 5.104,-5.273 4.614,-5.39 4.06,-5.39 H 0.44 c -0.173,0 -0.319,0.06 -0.435,0.18 -0.116,0.12 -0.175,0.274 -0.175,0.46 0,0.16 0.059,0.301 0.175,0.42 0.116,0.12 0.262,0.181 0.435,0.181 h 3.62 c 0.32,0 0.605,0.069 0.855,0.21 0.25,0.139 0.442,0.328 0.576,0.564 0.132,0.237 0.199,0.492 0.199,0.766 0,0.286 -0.067,0.554 -0.199,0.804 -0.134,0.25 -0.326,0.451 -0.576,0.6 -0.25,0.15 -0.535,0.226 -0.855,0.226 H 0.44 c -0.18,0 -0.326,0.049 -0.44,0.149 -0.113,0.101 -0.17,0.237 -0.17,0.41 0,0.174 0.057,0.314 0.17,0.42" /></g><g
       transform="translate(107.742,85.464)"
       id="g28"><path
         id="path30"
         style="fill:#9eba46;fill-opacity:1;fill-rule:nonzero;stroke:none"
         d="M 0,0 C -0.113,0.113 -0.264,0.206 -0.455,0.28 -0.644,0.354 -0.849,0.39 -1.07,0.39 -1.257,0.39 -1.429,0.354 -1.585,0.28 -1.741,0.206 -1.866,0.113 -1.96,0 -2.054,-0.113 -2.099,-0.23 -2.099,-0.35 V -2.54 H 0.17 v 2.19 C 0.17,-0.23 0.113,-0.113 0,0 Z M 2.981,1.905 C 3.067,1.955 3.156,1.98 3.25,1.98 3.37,1.98 3.481,1.94 3.58,1.86 3.7,1.76 3.76,1.606 3.76,1.4 3.76,1.24 3.724,1.093 3.651,0.96 3.377,0.48 2.821,0.24 1.981,0.24 1.74,0.24 1.55,0.161 1.41,0.005 1.27,-0.151 1.2,-0.377 1.2,-0.67 v -1.87 h 1.94 c 0.181,0 0.327,-0.049 0.44,-0.145 C 3.694,-2.782 3.75,-2.91 3.75,-3.07 3.75,-3.264 3.692,-3.432 3.575,-3.575 3.458,-3.719 3.314,-3.79 3.14,-3.79 h -5.779 c -0.174,0 -0.319,0.059 -0.436,0.175 -0.116,0.117 -0.175,0.262 -0.175,0.435 v 2.88 c 0,0.347 0.094,0.673 0.28,0.98 0.187,0.306 0.444,0.551 0.77,0.735 0.327,0.184 0.693,0.275 1.101,0.275 0.333,0 0.658,-0.09 0.974,-0.27 C 0.192,1.24 0.444,1.007 0.63,0.72 0.924,1.14 1.317,1.37 1.81,1.41 1.917,1.43 2.02,1.44 2.12,1.44 2.327,1.467 2.475,1.493 2.566,1.52 2.655,1.547 2.724,1.606 2.77,1.7 2.823,1.786 2.894,1.855 2.981,1.905" /></g><g
       transform="translate(104.647,100.459)"
       id="g32"><path
         id="path34"
         style="fill:#9eba46;fill-opacity:1;fill-rule:nonzero;stroke:none"
         d="m 0,0 c 0.124,0.136 0.279,0.204 0.465,0.204 0.06,0 0.127,-0.01 0.201,-0.029 l 5.799,-1.971 c 0.114,-0.039 0.203,-0.109 0.27,-0.21 0.067,-0.099 0.103,-0.21 0.11,-0.329 0,-0.12 -0.033,-0.234 -0.099,-0.341 -0.068,-0.106 -0.164,-0.189 -0.29,-0.25 l -3.231,-1.42 3.231,-1.429 c 0.126,-0.06 0.222,-0.144 0.29,-0.25 0.066,-0.107 0.099,-0.22 0.099,-0.34 -0.007,-0.12 -0.043,-0.231 -0.11,-0.33 -0.067,-0.101 -0.156,-0.17 -0.27,-0.21 L 0.666,-8.875 C 0.592,-8.896 0.525,-8.905 0.465,-8.905 0.279,-8.905 0.124,-8.837 0,-8.7 c -0.124,0.137 -0.185,0.288 -0.185,0.455 0,0.133 0.035,0.253 0.105,0.359 0.07,0.107 0.165,0.181 0.286,0.221 l 4.519,1.489 -3.12,1.301 c -0.12,0.053 -0.215,0.13 -0.285,0.229 -0.07,0.1 -0.102,0.213 -0.095,0.34 -0.007,0.127 0.025,0.239 0.095,0.335 0.07,0.097 0.165,0.172 0.285,0.226 l 3.09,1.229 -4.489,1.481 c -0.121,0.04 -0.216,0.114 -0.286,0.224 -0.07,0.111 -0.105,0.232 -0.105,0.366 0,0.16 0.061,0.308 0.185,0.445" /></g><g
       transform="translate(108.772,103.174)"
       id="g36"><path
         id="path38"
         style="fill:#9eba46;fill-opacity:1;fill-rule:nonzero;stroke:none"
         d="M 0,0 V 2 L -2.339,0.99 Z M 2.18,4.12 C 2.354,4.12 2.496,4.063 2.605,3.95 2.715,3.837 2.77,3.707 2.77,3.56 2.77,3.44 2.734,3.332 2.661,3.235 2.587,3.139 2.487,3.063 2.36,3.01 L 1.15,2.49 V -0.49 L 2.371,-1.01 C 2.497,-1.057 2.595,-1.128 2.666,-1.225 2.735,-1.321 2.77,-1.427 2.77,-1.54 2.77,-1.713 2.723,-1.845 2.63,-1.935 2.537,-2.026 2.411,-2.07 2.25,-2.07 c -0.06,0 -0.124,0.01 -0.19,0.03 l -5.979,2.49 c -0.134,0.053 -0.238,0.133 -0.311,0.24 -0.073,0.107 -0.104,0.227 -0.09,0.36 0,0.12 0.035,0.231 0.106,0.335 0.069,0.103 0.168,0.178 0.295,0.225 L 1.94,4.07 c 0.087,0.033 0.167,0.05 0.24,0.05" /></g><g
       transform="translate(110.572,113.764)"
       id="g40"><path
         id="path42"
         style="fill:#9eba46;fill-opacity:1;fill-rule:nonzero;stroke:none"
         d="m 0,0 c 0.107,0.08 0.23,0.12 0.37,0.12 0.173,0 0.317,-0.064 0.43,-0.19 0.113,-0.127 0.17,-0.263 0.17,-0.41 0,-0.193 -0.086,-0.357 -0.26,-0.49 l -2.37,-1.78 2.35,-1.73 c 0.187,-0.134 0.28,-0.3 0.28,-0.5 0,-0.146 -0.053,-0.273 -0.16,-0.38 -0.107,-0.107 -0.23,-0.16 -0.37,-0.16 -0.147,0 -0.283,0.05 -0.409,0.15 L -2.58,-3.44 -5.139,-5.37 C -5.247,-5.456 -5.366,-5.5 -5.5,-5.5 c -0.167,0 -0.31,0.063 -0.429,0.19 -0.121,0.126 -0.181,0.267 -0.181,0.42 0,0.193 0.087,0.356 0.261,0.49 l 2.34,1.76 -2.291,1.72 c -0.093,0.066 -0.165,0.143 -0.214,0.23 -0.051,0.086 -0.076,0.173 -0.076,0.26 0,0.146 0.059,0.276 0.175,0.39 0.116,0.113 0.245,0.17 0.385,0.17 0.127,0 0.247,-0.043 0.36,-0.13 L -2.599,-1.951 0,0" /></g><g
       transform="translate(110.092,122.528)"
       id="g44"><path
         id="path46"
         style="fill:#9eba46;fill-opacity:1;fill-rule:nonzero;stroke:none"
         d="m 0,0 c -0.166,0.177 -0.409,0.265 -0.73,0.265 -0.393,0 -0.65,-0.104 -0.77,-0.31 -0.119,-0.207 -0.18,-0.46 -0.18,-0.759 v -1.731 h 1.93 v 1.8 C 0.25,-0.422 0.167,-0.176 0,0 Z M -4.215,-0.309 C -4.352,-0.446 -4.42,-0.638 -4.42,-0.884 v -1.651 h 1.56 v 1.681 c 0,0.199 -0.066,0.375 -0.2,0.524 -0.134,0.151 -0.313,0.226 -0.54,0.226 -0.273,0 -0.478,-0.07 -0.615,-0.205 z m 2.375,1.54 c 0.287,0.222 0.657,0.335 1.11,0.335 0.793,0 1.347,-0.228 1.66,-0.681 C 1.244,0.432 1.4,-0.108 1.4,-0.735 V -3.224 C 1.4,-3.398 1.342,-3.543 1.225,-3.66 1.108,-3.776 0.964,-3.835 0.79,-3.835 h -5.779 c -0.174,0 -0.319,0.059 -0.436,0.175 -0.116,0.117 -0.175,0.262 -0.175,0.436 v 2.519 c 0,1.267 0.594,1.901 1.78,1.901 0.3,0 0.565,-0.073 0.795,-0.215 0.23,-0.144 0.412,-0.349 0.545,-0.615 0.14,0.353 0.354,0.641 0.64,0.865" /></g><g
       transform="translate(106.777,130.514)"
       id="g48"><path
         id="path50"
         style="fill:#9eba46;fill-opacity:1;fill-rule:nonzero;stroke:none"
         d="m 0,0 c -0.363,-0.18 -0.651,-0.43 -0.865,-0.75 -0.213,-0.321 -0.32,-0.68 -0.32,-1.08 0,-0.408 0.105,-0.769 0.315,-1.085 0.21,-0.317 0.498,-0.564 0.865,-0.741 0.367,-0.176 0.774,-0.264 1.22,-0.264 0.446,0 0.854,0.088 1.22,0.264 0.367,0.177 0.655,0.424 0.865,0.741 0.21,0.316 0.316,0.677 0.316,1.085 0,0.4 -0.108,0.759 -0.321,1.08 C 3.082,-0.43 2.793,-0.18 2.43,0 2.067,0.179 1.661,0.269 1.215,0.269 0.769,0.269 0.364,0.179 0,0 Z M 3.031,1.13 C 3.58,0.837 4.015,0.431 4.335,-0.085 4.656,-0.602 4.815,-1.184 4.815,-1.83 4.815,-2.477 4.656,-3.059 4.335,-3.576 4.015,-4.092 3.58,-4.495 3.031,-4.785 2.48,-5.076 1.875,-5.22 1.215,-5.22 c -0.66,0 -1.264,0.144 -1.815,0.435 -0.55,0.29 -0.985,0.693 -1.305,1.209 -0.32,0.517 -0.479,1.099 -0.479,1.746 0,0.646 0.159,1.228 0.479,1.745 0.32,0.516 0.755,0.922 1.305,1.215 0.551,0.293 1.155,0.44 1.815,0.44 0.66,0 1.265,-0.147 1.816,-0.44" /></g><g
       transform="translate(110.572,138.543)"
       id="g52"><path
         id="path54"
         style="fill:#9eba46;fill-opacity:1;fill-rule:nonzero;stroke:none"
         d="m 0,0 c 0.107,0.08 0.23,0.12 0.37,0.12 0.173,0 0.317,-0.063 0.43,-0.189 0.113,-0.127 0.17,-0.264 0.17,-0.411 0,-0.193 -0.086,-0.357 -0.26,-0.49 L -1.66,-2.75 0.69,-4.48 C 0.877,-4.613 0.97,-4.779 0.97,-4.98 0.97,-5.126 0.917,-5.253 0.81,-5.359 0.703,-5.467 0.58,-5.52 0.44,-5.52 c -0.147,0 -0.283,0.05 -0.409,0.15 L -2.58,-3.439 -5.139,-5.37 C -5.247,-5.456 -5.366,-5.5 -5.5,-5.5 c -0.167,0 -0.31,0.063 -0.429,0.19 -0.121,0.126 -0.181,0.267 -0.181,0.42 0,0.194 0.087,0.357 0.261,0.491 l 2.34,1.759 -2.291,1.72 c -0.093,0.066 -0.165,0.144 -0.214,0.231 -0.051,0.085 -0.076,0.172 -0.076,0.259 0,0.147 0.059,0.277 0.175,0.39 0.116,0.113 0.245,0.17 0.385,0.17 0.127,0 0.247,-0.043 0.36,-0.13 L -2.599,-1.95 0,0" /></g><g
       transform="translate(108.772,144.894)"
       id="g56"><path
         id="path58"
         style="fill:#9eba46;fill-opacity:1;fill-rule:nonzero;stroke:none"
         d="M 0,0 V 2 L -2.339,0.99 Z M 2.18,4.12 C 2.354,4.12 2.496,4.063 2.605,3.95 2.715,3.836 2.77,3.707 2.77,3.56 2.77,3.44 2.734,3.332 2.661,3.235 2.587,3.138 2.487,3.063 2.36,3.009 L 1.15,2.49 V -0.491 L 2.371,-1.01 C 2.497,-1.057 2.595,-1.128 2.666,-1.225 2.735,-1.322 2.77,-1.427 2.77,-1.54 2.77,-1.713 2.723,-1.845 2.63,-1.935 2.537,-2.026 2.411,-2.071 2.25,-2.071 c -0.06,0 -0.124,0.011 -0.19,0.031 l -5.979,2.49 c -0.134,0.052 -0.238,0.133 -0.311,0.24 -0.073,0.106 -0.104,0.227 -0.09,0.359 0,0.12 0.035,0.232 0.106,0.335 0.069,0.104 0.168,0.179 0.295,0.226 L 1.94,4.07 c 0.087,0.033 0.167,0.05 0.24,0.05" /></g><g
       transform="translate(110.487,154.559)"
       id="g60"><path
         id="path62"
         style="fill:#9eba46;fill-opacity:1;fill-rule:nonzero;stroke:none"
         d="M 0,0 C 0.111,0.116 0.252,0.174 0.425,0.174 0.592,0.174 0.73,0.116 0.84,0 0.951,-0.117 1.005,-0.262 1.005,-0.435 v -3.25 C 1.005,-3.859 0.947,-4.003 0.83,-4.121 0.713,-4.237 0.569,-4.295 0.395,-4.295 h -5.779 c -0.174,0 -0.319,0.059 -0.436,0.179 -0.116,0.12 -0.175,0.274 -0.175,0.46 0,0.167 0.059,0.311 0.175,0.431 0.117,0.12 0.262,0.18 0.436,0.18 h 5.219 v 2.61 C -0.165,-0.262 -0.11,-0.117 0,0" /></g><g
       transform="translate(104.652,160.323)"
       id="g64"><path
         id="path66"
         style="fill:#9eba46;fill-opacity:1;fill-rule:nonzero;stroke:none"
         d="M 0,0 C 0.107,0.114 0.246,0.17 0.42,0.17 0.594,0.17 0.732,0.114 0.835,0 0.939,-0.113 0.991,-0.26 0.991,-0.44 V -2.01 H 6.23 c 0.174,0 0.318,-0.063 0.435,-0.19 C 6.782,-2.327 6.84,-2.483 6.84,-2.67 6.84,-2.856 6.782,-3.01 6.665,-3.13 6.548,-3.25 6.404,-3.309 6.23,-3.309 H 0.991 V -4.88 C 0.991,-5.059 0.937,-5.207 0.83,-5.32 0.724,-5.433 0.583,-5.49 0.411,-5.49 0.244,-5.49 0.107,-5.431 0,-5.315 c -0.106,0.117 -0.16,0.262 -0.16,0.435 v 4.44 c 0,0.18 0.054,0.327 0.16,0.44" /></g><g
       transform="translate(110.518,166.338)"
       id="g68"><path
         id="path70"
         style="fill:#9eba46;fill-opacity:1;fill-rule:nonzero;stroke:none"
         d="M 0,0 C 0.116,0.117 0.251,0.176 0.404,0.176 0.571,0.176 0.708,0.117 0.814,0 0.92,-0.116 0.974,-0.262 0.974,-0.435 V -3.784 C 0.974,-3.958 0.916,-4.103 0.799,-4.22 0.682,-4.336 0.538,-4.395 0.364,-4.395 h -5.779 c -0.174,0 -0.319,0.059 -0.436,0.175 -0.116,0.117 -0.175,0.262 -0.175,0.436 v 3.349 c 0,0.173 0.055,0.319 0.165,0.435 0.111,0.117 0.252,0.176 0.425,0.176 0.167,0 0.302,-0.057 0.405,-0.17 0.104,-0.115 0.156,-0.261 0.156,-0.441 v -2.71 h 1.699 v 2.26 c 0,0.174 0.055,0.318 0.165,0.436 0.11,0.116 0.252,0.174 0.426,0.174 0.166,0 0.301,-0.056 0.404,-0.169 0.103,-0.114 0.155,-0.26 0.155,-0.441 v -2.26 h 1.85 v 2.71 c 0,0.173 0.058,0.319 0.176,0.435" /></g><g
       transform="translate(107.742,171.854)"
       id="g72"><path
         id="path74"
         style="fill:#9eba46;fill-opacity:1;fill-rule:nonzero;stroke:none"
         d="M 0,0 C -0.113,0.113 -0.264,0.206 -0.455,0.28 -0.644,0.353 -0.849,0.389 -1.07,0.389 -1.257,0.389 -1.429,0.353 -1.585,0.28 -1.741,0.206 -1.866,0.113 -1.96,0 -2.054,-0.114 -2.099,-0.231 -2.099,-0.35 V -2.541 H 0.17 V -0.35 C 0.17,-0.231 0.113,-0.114 0,0 Z M 2.981,1.905 C 3.067,1.955 3.156,1.979 3.25,1.979 3.37,1.979 3.481,1.94 3.58,1.86 3.7,1.759 3.76,1.606 3.76,1.4 3.76,1.24 3.724,1.092 3.651,0.959 3.377,0.479 2.821,0.24 1.981,0.24 1.74,0.24 1.55,0.161 1.41,0.004 1.27,-0.152 1.2,-0.377 1.2,-0.67 v -1.871 h 1.94 c 0.181,0 0.327,-0.048 0.44,-0.144 0.114,-0.098 0.17,-0.226 0.17,-0.386 0,-0.193 -0.058,-0.361 -0.175,-0.505 C 3.458,-3.719 3.314,-3.791 3.14,-3.791 h -5.779 c -0.174,0 -0.319,0.059 -0.436,0.175 -0.116,0.117 -0.175,0.262 -0.175,0.436 v 2.88 c 0,0.346 0.094,0.673 0.28,0.979 0.187,0.307 0.444,0.552 0.77,0.736 0.327,0.183 0.693,0.275 1.101,0.275 0.333,0 0.658,-0.091 0.974,-0.271 C 0.192,1.24 0.444,1.006 0.63,0.719 0.924,1.139 1.317,1.37 1.81,1.41 1.917,1.429 2.02,1.44 2.12,1.44 2.327,1.466 2.475,1.493 2.566,1.519 2.655,1.546 2.724,1.606 2.77,1.7 2.823,1.786 2.894,1.854 2.981,1.905" /></g><g
       transform="translate(104.652,181.033)"
       id="g76"><path
         id="path78"
         style="fill:#9eba46;fill-opacity:1;fill-rule:nonzero;stroke:none"
         d="M 0,0 C 0.107,0.1 0.241,0.15 0.4,0.15 H 6.23 C 6.404,0.15 6.548,0.092 6.665,-0.025 6.782,-0.141 6.84,-0.287 6.84,-0.46 6.84,-0.554 6.826,-0.645 6.795,-0.735 6.765,-0.825 6.724,-0.89 6.67,-0.93 L 2.01,-4.6 H 6.281 C 6.44,-4.6 6.574,-4.652 6.68,-4.755 6.786,-4.858 6.84,-4.993 6.84,-5.16 6.84,-5.32 6.786,-5.45 6.68,-5.55 6.574,-5.65 6.44,-5.7 6.281,-5.7 h -5.83 c -0.174,0 -0.319,0.059 -0.436,0.175 -0.116,0.117 -0.175,0.262 -0.175,0.435 0,0.1 0.02,0.199 0.06,0.295 0.04,0.097 0.094,0.168 0.16,0.215 l 4.641,3.64 H 0.4 c -0.159,0 -0.293,0.052 -0.4,0.155 -0.106,0.104 -0.16,0.235 -0.16,0.395 0,0.16 0.054,0.29 0.16,0.39" /></g><g
       transform="translate(108.772,184.503)"
       id="g80"><path
         id="path82"
         style="fill:#9eba46;fill-opacity:1;fill-rule:nonzero;stroke:none"
         d="M 0,0 V 2 L -2.339,0.99 Z M 2.18,4.12 C 2.354,4.12 2.496,4.063 2.605,3.95 2.715,3.837 2.77,3.707 2.77,3.56 2.77,3.44 2.734,3.332 2.661,3.235 2.587,3.139 2.487,3.063 2.36,3.01 L 1.15,2.49 V -0.49 L 2.371,-1.01 C 2.497,-1.057 2.595,-1.128 2.666,-1.225 2.735,-1.321 2.77,-1.427 2.77,-1.54 2.77,-1.713 2.723,-1.845 2.63,-1.935 2.537,-2.025 2.411,-2.07 2.25,-2.07 c -0.06,0 -0.124,0.01 -0.19,0.03 l -5.979,2.49 c -0.134,0.053 -0.238,0.133 -0.311,0.24 -0.073,0.107 -0.104,0.227 -0.09,0.36 0,0.12 0.035,0.231 0.106,0.335 0.069,0.103 0.168,0.178 0.295,0.225 L 1.94,4.07 c 0.087,0.033 0.167,0.05 0.24,0.05" /></g><g
       transform="translate(104.652,194.413)"
       id="g84"><path
         id="path86"
         style="fill:#9eba46;fill-opacity:1;fill-rule:nonzero;stroke:none"
         d="M 0,0 C 0.107,0.113 0.246,0.17 0.42,0.17 0.594,0.17 0.732,0.113 0.835,0 0.939,-0.113 0.991,-0.26 0.991,-0.44 V -2.01 H 6.23 c 0.174,0 0.318,-0.063 0.435,-0.19 C 6.782,-2.327 6.84,-2.483 6.84,-2.67 6.84,-2.856 6.782,-3.01 6.665,-3.13 6.548,-3.25 6.404,-3.309 6.23,-3.309 H 0.991 V -4.88 C 0.991,-5.059 0.937,-5.207 0.83,-5.32 0.724,-5.434 0.583,-5.49 0.411,-5.49 0.244,-5.49 0.107,-5.432 0,-5.315 c -0.106,0.117 -0.16,0.261 -0.16,0.435 v 4.44 c 0,0.18 0.054,0.327 0.16,0.44" /></g><g
       transform="translate(111.317,197.093)"
       id="g88"><path
         id="path90"
         style="fill:#9eba46;fill-opacity:1;fill-rule:nonzero;stroke:none"
         d="M 0,0 C 0.117,-0.126 0.175,-0.274 0.175,-0.44 0.175,-0.619 0.117,-0.768 0,-0.885 -0.117,-1.001 -0.261,-1.06 -0.435,-1.06 h -5.779 c -0.174,0 -0.319,0.06 -0.436,0.18 -0.116,0.12 -0.175,0.273 -0.175,0.46 0,0.167 0.059,0.31 0.175,0.431 0.117,0.12 0.262,0.179 0.436,0.179 h 5.779 C -0.261,0.19 -0.117,0.127 0,0" /></g><g
       transform="translate(104.643,204.728)"
       id="g92"><path
         id="path94"
         style="fill:#9eba46;fill-opacity:1;fill-rule:nonzero;stroke:none"
         d="m 0,0 c 0.113,0.123 0.25,0.185 0.409,0.185 0.087,0 0.177,-0.02 0.27,-0.06 l 5.781,-2.47 c 0.126,-0.061 0.222,-0.144 0.29,-0.25 0.066,-0.107 0.099,-0.22 0.099,-0.34 C 6.842,-3.049 6.807,-3.154 6.744,-3.25 6.681,-3.347 6.589,-3.422 6.469,-3.475 L 0.67,-5.946 c -0.067,-0.033 -0.151,-0.05 -0.25,-0.05 -0.181,0 -0.326,0.067 -0.436,0.201 -0.109,0.132 -0.165,0.269 -0.165,0.41 0,0.113 0.034,0.22 0.101,0.32 0.066,0.1 0.163,0.176 0.29,0.23 l 4.729,2.009 -4.729,1.84 c -0.121,0.054 -0.214,0.131 -0.281,0.231 -0.066,0.099 -0.099,0.206 -0.099,0.32 0,0.166 0.056,0.311 0.17,0.435" /></g><g
       transform="translate(110.518,210.758)"
       id="g96"><path
         id="path98"
         style="fill:#9eba46;fill-opacity:1;fill-rule:nonzero;stroke:none"
         d="M 0,0 C 0.116,0.117 0.251,0.176 0.404,0.176 0.571,0.176 0.708,0.117 0.814,0 0.92,-0.116 0.974,-0.262 0.974,-0.435 V -3.784 C 0.974,-3.958 0.916,-4.103 0.799,-4.22 0.682,-4.336 0.538,-4.395 0.364,-4.395 h -5.779 c -0.174,0 -0.319,0.059 -0.436,0.175 -0.116,0.117 -0.175,0.262 -0.175,0.436 v 3.349 c 0,0.173 0.055,0.319 0.165,0.435 0.111,0.117 0.252,0.176 0.425,0.176 0.167,0 0.302,-0.057 0.405,-0.17 0.104,-0.115 0.156,-0.261 0.156,-0.441 v -2.71 h 1.699 v 2.26 c 0,0.174 0.055,0.318 0.165,0.436 0.11,0.116 0.252,0.174 0.426,0.174 0.166,0 0.301,-0.056 0.404,-0.17 0.103,-0.113 0.155,-0.259 0.155,-0.44 v -2.26 h 1.85 v 2.71 c 0,0.173 0.058,0.319 0.176,0.435" /></g><g
       transform="translate(57.873,116.494)"
       id="g100"><path
         id="path102"
         style="fill:#9eba46;fill-opacity:1;fill-rule:nonzero;stroke:none"
         d="m 0,0 c 2.014,0 3.815,-0.424 5.405,-1.165 1.59,-0.742 2.967,-1.908 4.133,-3.498 1.166,-1.484 2.014,-3.391 2.65,-5.511 0.636,-2.225 0.953,-4.663 0.953,-7.418 v -18.653 h 9.115 V -47.267 H 4.027 v 30.734 c 0,1.696 -0.424,3.074 -1.165,4.028 -0.742,0.954 -1.696,1.377 -2.968,1.377 -1.272,0 -2.225,-0.423 -2.967,-1.377 -0.742,-0.954 -1.06,-2.226 -1.06,-4.028 v -70.476 l -9.326,-5.935 v 75.458 c 0,2.755 0.318,5.299 0.953,7.418 0.636,2.12 1.59,4.027 2.756,5.511 1.166,1.484 2.543,2.65 4.239,3.391 C -3.815,-0.318 -2.014,0 0,0" /></g><g
       transform="translate(61.9,65.73)"
       id="g104"><path
         id="path106"
         style="fill:#2b6160;fill-opacity:1;fill-rule:nonzero;stroke:none"
         d="m 0,0 v -32.006 l 7.419,5.617 V 0 H 0" /></g><g
       transform="translate(72.816,65.73)"
       id="g108"><path
         id="path110"
         style="fill:#2b6160;fill-opacity:1;fill-rule:nonzero;stroke:none"
         d="m 0,0 v -24.375 l 7.419,5.617 V 0 H 0" /></g><g
       transform="translate(35.935,43.368)"
       id="g112"><path
         id="path114"
         style="fill:#2b6160;fill-opacity:1;fill-rule:nonzero;stroke:none"
         d="m 0,0 c 0,3.512 2.847,6.359 6.359,6.359 3.512,0 6.359,-2.847 6.359,-6.359 0,-3.512 -2.847,-6.359 -6.359,-6.359 C 2.847,-6.359 0,-3.512 0,0" /></g><path
       id="path116"
       style="fill:#9eba46;fill-opacity:1;fill-rule:nonzero;stroke:none"
       d="m 46.533,126.88 h 12.612 v 2.226 H 46.533 Z" /><g
       transform="translate(46.533,132.497)"
       id="g118"><path
         id="path120"
         style="fill:#9eba46;fill-opacity:1;fill-rule:nonzero;stroke:none"
         d="M 0,0 V 2.014 L 8.796,8.797 H 0 v 2.225 H 12.612 V 9.114 L 3.603,2.12 h 9.009 V 0 L 0,0" /></g><g
       transform="translate(48.547,148.924)"
       id="g122"><path
         id="path124"
         style="fill:#9eba46;fill-opacity:1;fill-rule:nonzero;stroke:none"
         d="M 0,0 H 8.584 V 2.544 C 8.584,3.179 8.478,3.815 8.266,4.345 8.054,4.875 7.736,5.299 7.419,5.723 6.995,6.147 6.571,6.359 6.041,6.571 5.511,6.783 4.981,6.889 4.345,6.889 3.709,6.889 3.179,6.783 2.649,6.571 2.12,6.359 1.696,6.041 1.272,5.723 0.848,5.299 0.636,4.875 0.424,4.345 0.212,3.815 0.106,3.179 0.106,2.544 V 0 Z m -2.014,-2.226 v 4.77 c 0,0.953 0.212,1.907 0.53,2.755 0.318,0.848 0.742,1.484 1.378,2.12 0.53,0.636 1.272,1.059 2.014,1.377 0.741,0.318 1.589,0.53 2.437,0.53 0.848,0 1.696,-0.212 2.544,-0.53 C 7.631,8.478 8.372,8.055 8.902,7.419 9.432,6.783 9.962,6.147 10.28,5.299 10.598,4.451 10.81,3.603 10.81,2.544 v -4.77 H -2.014" /></g><g
       transform="translate(59.357,166.093)"
       id="g126"><path
         id="path128"
         style="fill:#9eba46;fill-opacity:1;fill-rule:nonzero;stroke:none"
         d="m 0,0 c 0,-0.848 -0.106,-1.59 -0.318,-2.226 -0.212,-0.636 -0.636,-1.272 -1.06,-1.695 -0.424,-0.424 -1.06,-0.848 -1.696,-1.06 -0.741,-0.212 -1.483,-0.424 -2.437,-0.424 h -7.313 v 2.225 h 7.207 c 1.166,0 2.12,0.318 2.65,0.848 0.635,0.53 0.953,1.378 0.953,2.332 0,0.954 -0.318,1.801 -0.847,2.331 -0.636,0.53 -1.484,0.848 -2.65,0.848 h -7.313 v 2.226 h 7.207 c 0.954,0 1.802,-0.106 2.438,-0.424 0.741,-0.212 1.271,-0.636 1.801,-1.06 0.424,-0.424 0.848,-1.06 1.06,-1.696 C -0.106,1.589 0,0.742 0,0" /></g><g
       transform="translate(59.357,179.022)"
       id="g130"><path
         id="path132"
         style="fill:#9eba46;fill-opacity:1;fill-rule:nonzero;stroke:none"
         d="m 0,0 c 0,-0.954 -0.212,-1.907 -0.53,-2.755 -0.318,-0.848 -0.848,-1.696 -1.484,-2.438 l -1.589,1.378 c 0.529,0.636 0.953,1.272 1.271,1.908 0.318,0.636 0.424,1.377 0.424,2.119 0,0.636 -0.106,1.272 -0.424,1.59 -0.318,0.424 -0.635,0.636 -1.165,0.636 -0.212,0 -0.424,0 -0.636,-0.106 C -4.345,2.226 -4.451,2.12 -4.663,1.908 -4.769,1.696 -4.981,1.378 -5.087,1.06 -5.193,0.742 -5.299,0.212 -5.511,-0.424 c -0.106,-0.636 -0.318,-1.271 -0.53,-1.801 -0.212,-0.53 -0.424,-0.954 -0.742,-1.272 -0.318,-0.318 -0.636,-0.636 -1.059,-0.848 -0.425,-0.212 -0.954,-0.318 -1.484,-0.318 -0.53,0 -1.06,0.106 -1.484,0.318 -0.424,0.212 -0.848,0.53 -1.166,0.848 -0.318,0.424 -0.53,0.848 -0.742,1.378 -0.212,0.53 -0.318,1.06 -0.318,1.695 0,0.954 0.106,1.802 0.424,2.544 0.318,0.742 0.636,1.484 1.166,2.119 L -9.75,3.074 c -0.424,-0.53 -0.742,-1.166 -0.954,-1.696 -0.212,-0.53 -0.318,-1.166 -0.318,-1.696 0,-0.636 0.106,-1.165 0.424,-1.483 0.318,-0.318 0.636,-0.53 1.06,-0.53 0.212,0 0.424,0 0.636,0.106 0.212,0.106 0.318,0.212 0.53,0.424 0.105,0.212 0.317,0.53 0.423,0.953 0.107,0.424 0.318,0.848 0.424,1.484 0.212,0.636 0.318,1.272 0.53,1.802 0.212,0.53 0.424,0.954 0.742,1.272 0.318,0.317 0.636,0.635 1.06,0.741 0.424,0.212 0.848,0.212 1.378,0.212 0.636,0 1.165,-0.106 1.589,-0.318 C -1.802,4.133 -1.378,3.816 -1.06,3.392 -0.742,2.968 -0.53,2.544 -0.318,2.014 -0.106,1.272 0,0.636 0,0" /></g><g
       transform="translate(48.547,188.984)"
       id="g134"><path
         id="path136"
         style="fill:#9eba46;fill-opacity:1;fill-rule:nonzero;stroke:none"
         d="M 0,0 V -4.027 H -2.014 V 6.253 H 0 V 2.226 H 10.598 V 0 H 0" /></g><g
       transform="translate(52.786,203.08)"
       id="g138"><path
         id="path140"
         style="fill:#9eba46;fill-opacity:1;fill-rule:nonzero;stroke:none"
         d="m 0,0 c 0,0.848 -0.212,1.377 -0.53,1.907 -0.424,0.424 -0.848,0.742 -1.59,0.742 -0.636,0 -1.165,-0.212 -1.589,-0.636 -0.318,-0.424 -0.53,-1.06 -0.53,-1.907 V -3.18 H 0 Z m -6.253,-5.511 v 5.617 c 0,0.847 0.106,1.483 0.318,2.119 0.212,0.636 0.53,1.166 0.954,1.484 0.318,0.318 0.742,0.636 1.166,0.742 0.424,0.212 0.954,0.318 1.484,0.318 1.059,0 1.907,-0.318 2.543,-0.848 0.636,-0.53 1.06,-1.272 1.378,-2.12 L 6.359,5.193 V 2.543 L 1.908,-0.53 V -3.286 H 6.359 V -5.511 H -6.253" /></g><g
       transform="translate(54.163,213.89)"
       id="g142"><path
         id="path144"
         style="fill:#9eba46;fill-opacity:1;fill-rule:nonzero;stroke:none"
         d="m 0,0 -7.631,-4.981 v 2.649 l 5.617,3.497 -5.617,3.604 V 7.312 L 0,2.331 H 5.087 V 0.106 L 0,0.106 V 0" /></g><g
       transform="translate(72.286,131.331)"
       id="g146"><path
         id="path148"
         style="fill:#2b6160;fill-opacity:1;fill-rule:nonzero;stroke:none"
         d="M 0,0 C 0,0.636 -0.106,1.166 -0.212,1.59 -0.318,2.12 -0.53,2.438 -0.848,2.862 -1.166,3.18 -1.484,3.498 -1.802,3.71 -2.226,3.922 -2.65,4.028 -3.073,4.028 -3.603,4.028 -4.027,3.922 -4.451,3.71 -4.875,3.498 -5.193,3.286 -5.405,2.968 -5.617,2.65 -5.829,2.226 -5.935,1.802 -6.041,1.378 -6.147,0.848 -6.147,0.212 v -3.603 h 6.253 l 0,3.391 z m -7.101,-4.345 v 4.557 c 0,0.742 0.106,1.378 0.212,1.908 0.212,0.53 0.424,1.06 0.742,1.484 0.318,0.424 0.742,0.742 1.166,0.954 0.424,0.212 1.06,0.318 1.59,0.318 0.635,0 1.271,-0.106 1.801,-0.424 0.53,-0.318 0.954,-0.636 1.272,-1.06 C 0,2.968 0.318,2.438 0.424,1.802 0.636,1.166 0.636,0.53 0.636,-0.106 V -3.497 H 5.405 V -4.451 H -7.101 v 0.106" /></g><g
       transform="translate(65.185,141.082)"
       id="g150"><path
         id="path152"
         style="fill:#2b6160;fill-opacity:1;fill-rule:nonzero;stroke:none"
         d="m 0,0 v 0.953 h 11.764 v 7.419 h 0.848 V 0 H 0" /></g><g
       transform="translate(73.452,162.913)"
       id="g154"><path
         id="path156"
         style="fill:#2b6160;fill-opacity:1;fill-rule:nonzero;stroke:none"
         d="M 0,0 -7.313,-3.285 0,-6.676 Z m -8.372,-3.709 v 0.954 L 4.345,3.18 V 2.12 L 0.848,0.53 v -7.418 l 3.497,-1.59 v -0.954 l -12.717,5.723" /></g><g
       transform="translate(78.009,174.995)"
       id="g158"><path
         id="path160"
         style="fill:#2b6160;fill-opacity:1;fill-rule:nonzero;stroke:none"
         d="m 0,0 c 0,-1.06 -0.212,-1.908 -0.53,-2.755 -0.318,-0.848 -0.848,-1.59 -1.484,-2.332 l -0.742,0.636 c 0.318,0.318 0.636,0.742 0.848,1.06 0.212,0.318 0.424,0.742 0.53,1.06 0.106,0.317 0.318,0.741 0.318,1.165 0.106,0.424 0.106,0.848 0.106,1.272 0,0.424 -0.106,0.954 -0.212,1.272 -0.106,0.424 -0.318,0.742 -0.53,1.06 -0.212,0.318 -0.53,0.53 -0.848,0.635 -0.318,0.106 -0.635,0.212 -0.953,0.212 -0.318,0 -0.636,0 -0.954,-0.106 C -4.769,3.073 -4.981,2.862 -5.193,2.65 -5.405,2.332 -5.617,2.014 -5.829,1.59 -6.041,1.166 -6.147,0.53 -6.359,-0.212 -6.465,-0.954 -6.677,-1.59 -6.889,-2.12 c -0.212,-0.529 -0.424,-0.953 -0.742,-1.377 -0.318,-0.318 -0.635,-0.636 -0.953,-0.742 -0.424,-0.106 -0.848,-0.212 -1.272,-0.212 -0.424,0 -0.954,0.106 -1.272,0.318 -0.424,0.212 -0.742,0.53 -1.06,0.848 -0.318,0.318 -0.53,0.742 -0.742,1.271 -0.212,0.53 -0.212,1.06 -0.212,1.59 0,0.954 0.107,1.696 0.424,2.332 0.212,0.636 0.636,1.271 1.166,2.013 l 0.742,-0.636 c -0.53,-0.635 -0.848,-1.165 -1.06,-1.801 -0.212,-0.636 -0.318,-1.272 -0.318,-2.014 0,-0.424 0.106,-0.848 0.212,-1.272 0.106,-0.423 0.318,-0.741 0.53,-0.953 0.212,-0.318 0.424,-0.53 0.742,-0.636 0.318,-0.106 0.636,-0.212 0.954,-0.212 0.318,0 0.636,0 0.954,0.106 0.318,0.106 0.53,0.318 0.741,0.53 0.212,0.318 0.424,0.636 0.636,1.165 0.212,0.53 0.318,1.06 0.53,1.802 0.318,1.484 0.742,2.544 1.272,3.179 0.53,0.636 1.272,0.954 2.226,0.954 0.529,0 0.953,-0.106 1.377,-0.318 0.424,-0.212 0.742,-0.53 1.06,-0.847 C -0.636,2.65 -0.424,2.12 -0.212,1.696 0,1.166 0,0.636 0,0" /></g><g
       transform="translate(66.033,187.607)"
       id="g162"><path
         id="path164"
         style="fill:#2b6160;fill-opacity:1;fill-rule:nonzero;stroke:none"
         d="m 0,0 v -4.451 h -0.848 v 9.75 H 0 V 0.847 H 11.764 V 0 H 0" /></g><path
       id="path166"
       style="fill:#2b6160;fill-opacity:1;fill-rule:nonzero;stroke:none"
       d="m 65.185,197.993 h 12.612 v 0.95302 H 65.185 Z" /><g
       transform="translate(78.115,210.71)"
       id="g168"><path
         id="path170"
         style="fill:#2b6160;fill-opacity:1;fill-rule:nonzero;stroke:none"
         d="m 0,0 c 0,-0.954 -0.212,-1.695 -0.53,-2.543 -0.318,-0.848 -0.848,-1.484 -1.378,-2.014 -0.636,-0.53 -1.271,-0.954 -2.119,-1.272 -0.848,-0.318 -1.696,-0.424 -2.544,-0.424 -0.848,0 -1.695,0.212 -2.543,0.53 -0.848,0.318 -1.484,0.742 -2.12,1.272 -0.636,0.53 -1.06,1.272 -1.378,2.014 -0.318,0.742 -0.529,1.589 -0.529,2.543 0,0.53 0,1.06 0.105,1.484 0.106,0.424 0.212,0.848 0.424,1.272 0.212,0.424 0.424,0.742 0.636,1.059 0.212,0.318 0.53,0.636 0.848,0.954 l 0.636,-0.636 C -10.704,3.921 -11.022,3.709 -11.234,3.392 -11.446,3.074 -11.658,2.756 -11.87,2.438 -12.082,2.12 -12.188,1.696 -12.294,1.272 -12.4,0.848 -12.4,0.424 -12.4,0 c 0,-0.742 0.106,-1.483 0.424,-2.119 0.318,-0.636 0.742,-1.166 1.166,-1.696 0.53,-0.424 1.06,-0.848 1.802,-1.166 0.636,-0.318 1.377,-0.424 2.225,-0.424 0.848,0 1.59,0.106 2.226,0.424 0.742,0.318 1.272,0.636 1.801,1.166 0.53,0.424 0.954,1.06 1.166,1.696 0.318,0.636 0.424,1.377 0.424,2.119 0,0.954 -0.212,1.696 -0.53,2.438 -0.318,0.636 -0.848,1.377 -1.483,2.013 l 0.635,0.636 C -2.226,4.769 -1.908,4.451 -1.696,4.027 -1.378,3.709 -1.166,3.286 -0.954,2.862 -0.742,2.438 -0.636,2.014 -0.53,1.59 -0.106,1.06 0,0.53 0,0" /></g><g
       transform="translate(93.694,50.257)"
       id="g172"><path
         id="path174"
         style="fill:#2b6160;fill-opacity:1;fill-rule:nonzero;stroke:none"
         d="M 0,0 H -0.8479 V 3.6033 H 0 Z M 1.696,-1.378 -4.875,1.06 V 2.331 L 1.696,4.769 V 3.815 L -2.967,2.12 -3.921,1.802 -2.967,1.484 1.802,-0.212 V -1.378 H 1.696" /></g><g
       transform="translate(94.648,62.233)"
       id="g176"><path
         id="path178"
         style="fill:#2b6160;fill-opacity:1;fill-rule:nonzero;stroke:none"
         d="M 0,0 C 0,0.318 -0.106,0.53 -0.212,0.742 -0.318,0.954 -0.53,1.06 -0.848,1.272 -1.166,1.378 -1.484,1.484 -1.802,1.484 -2.12,1.484 -2.437,1.378 -2.649,1.272 -2.861,1.166 -3.073,0.954 -3.179,0.848 -3.285,0.636 -3.391,0.424 -3.391,0.106 c 0,-0.424 0.106,-0.742 0.424,-1.06 0.318,-0.212 0.741,-0.318 1.271,-0.318 0.53,0 0.954,0.106 1.272,0.318 C -0.212,-0.742 0,-0.424 0,0 Z M 0.848,-0.212 C 0.848,-0.636 0.742,-0.954 0.53,-1.378 0.318,-1.696 0,-2.014 -0.318,-2.12 c -0.318,-0.106 -0.848,-0.317 -1.378,-0.317 -0.53,0 -1.059,0.105 -1.377,0.317 -0.318,0.212 -0.636,0.53 -0.848,0.848 -0.212,0.318 -0.318,0.742 -0.318,1.166 0,0.424 0.106,0.742 0.318,1.06 0.212,0.318 0.53,0.53 0.954,0.636 V 1.378 H -6.465 V 2.437 H 0.742 V 1.484 L -0.636,1.378 v 0.106 c 0.318,0 0.53,-0.106 0.742,-0.318 C 0.318,0.954 0.53,0.742 0.636,0.53 0.742,0.318 0.848,0.106 0.848,-0.212" /></g><g
       transform="translate(90.409,67.744)"
       id="g180"><path
         id="path182"
         style="fill:#2b6160;fill-opacity:1;fill-rule:nonzero;stroke:none"
         d="M 0,0 H 4.981 V -1.0598 H 0 Z m -0.848,-0.53 c 0,-0.212 -0.106,-0.424 -0.212,-0.53 -0.106,-0.106 -0.318,-0.212 -0.53,-0.212 -0.212,0 -0.424,0.106 -0.53,0.212 -0.106,0.106 -0.212,0.318 -0.212,0.53 0,0.212 0.106,0.424 0.212,0.53 0.106,0.106 0.318,0.212 0.53,0.212 0.212,0 0.424,-0.106 0.53,-0.212 0.106,-0.106 0.212,-0.318 0.212,-0.53" /></g><g
       transform="translate(90.409,73.043)"
       id="g184"><path
         id="path186"
         style="fill:#2b6160;fill-opacity:1;fill-rule:nonzero;stroke:none"
         d="m 0,0 v 1.166 l 4.981,-2.12 V -2.12 L 0,-4.133 v 1.166 L 4.027,-1.59 0,0" /></g><g
       transform="translate(90.409,76.434)"
       id="g188"><path
         id="path190"
         style="fill:#2b6160;fill-opacity:1;fill-rule:nonzero;stroke:none"
         d="M 0,0 H 4.981 V -1.0598 H 0 Z m -0.848,-0.53 c 0,-0.212 -0.106,-0.424 -0.212,-0.53 -0.106,-0.106 -0.318,-0.212 -0.53,-0.212 -0.212,0 -0.424,0.106 -0.53,0.212 -0.106,0.106 -0.212,0.318 -0.212,0.53 0,0.212 0.106,0.424 0.212,0.53 0.106,0.106 0.318,0.212 0.53,0.212 0.212,0 0.424,-0.106 0.53,-0.212 0.106,-0.106 0.212,-0.318 0.212,-0.53" /></g><g
       transform="translate(95.178,78.978)"
       id="g192"><path
         id="path194"
         style="fill:#2b6160;fill-opacity:1;fill-rule:nonzero;stroke:none"
         d="m 0,0 c -0.212,-0.424 -0.424,-0.742 -0.848,-0.954 l -0.636,0.742 c 0.318,0.106 0.53,0.318 0.636,0.636 0.106,0.318 0.212,0.636 0.212,0.954 0,0.318 -0.106,0.53 -0.212,0.742 -0.106,0.211 -0.212,0.318 -0.424,0.318 -0.106,0 -0.212,0 -0.318,-0.107 C -1.696,2.225 -1.802,2.12 -1.802,1.908 L -2.014,0.848 C -2.12,0.318 -2.332,0 -2.543,-0.318 c -0.212,-0.212 -0.53,-0.318 -0.954,-0.318 -0.318,0 -0.53,0.106 -0.742,0.212 -0.212,0.212 -0.424,0.424 -0.53,0.742 -0.106,0.318 -0.212,0.636 -0.212,1.06 0,0.53 0.106,0.953 0.212,1.271 0.212,0.318 0.424,0.636 0.742,0.848 L -3.285,2.649 C -3.497,2.544 -3.709,2.331 -3.921,2.12 -4.133,1.908 -4.133,1.59 -4.133,1.378 c 0,-0.212 0,-0.424 0.106,-0.53 0.106,-0.106 0.106,-0.318 0.212,-0.318 0.106,-0.106 0.212,-0.106 0.318,-0.106 0.106,0 0.212,0.106 0.318,0.212 0.106,0.106 0.212,0.318 0.212,0.53 l 0.212,1.165 c 0.106,0.424 0.212,0.742 0.423,0.954 0.212,0.212 0.53,0.318 0.848,0.318 0.53,0 0.848,-0.212 1.166,-0.53 C 0,2.649 0.106,2.225 0.106,1.59 0.318,0.848 0.212,0.318 0,0" /></g><g
       transform="translate(90.409,85.124)"
       id="g196"><path
         id="path198"
         style="fill:#2b6160;fill-opacity:1;fill-rule:nonzero;stroke:none"
         d="M 0,0 H 4.981 V -1.0598 H 0 Z m -0.848,-0.53 c 0,-0.212 -0.106,-0.424 -0.212,-0.53 -0.106,-0.106 -0.318,-0.212 -0.53,-0.212 -0.212,0 -0.424,0.106 -0.53,0.212 -0.106,0.106 -0.212,0.318 -0.212,0.53 0,0.212 0.106,0.424 0.212,0.53 0.106,0.106 0.318,0.212 0.53,0.212 0.212,0 0.424,-0.106 0.53,-0.212 0.106,-0.106 0.212,-0.318 0.212,-0.53" /></g><g
       transform="translate(91.15,89.258)"
       id="g200"><path
         id="path202"
         style="fill:#2b6160;fill-opacity:1;fill-rule:nonzero;stroke:none"
         d="m 0,0 c 0,-0.318 0.106,-0.53 0.212,-0.742 0.106,-0.212 0.318,-0.424 0.636,-0.53 0.212,-0.106 0.53,-0.212 0.954,-0.212 0.424,0 0.742,0.106 0.953,0.212 0.212,0.106 0.424,0.318 0.636,0.53 C 3.497,-0.53 3.603,-0.318 3.603,0 3.603,0.318 3.497,0.53 3.391,0.742 3.285,0.954 3.073,1.06 2.755,1.272 2.544,1.378 2.226,1.484 1.802,1.484 1.378,1.484 1.06,1.378 0.848,1.272 0.636,1.166 0.424,0.954 0.212,0.742 0,0.53 0,0.318 0,0 Z m -0.848,0 c 0,0.53 0.106,0.954 0.318,1.272 C -0.318,1.696 0,1.908 0.318,2.12 0.742,2.331 1.166,2.438 1.696,2.438 2.226,2.438 2.649,2.332 3.073,2.12 3.497,1.908 3.709,1.59 3.921,1.272 4.133,0.954 4.345,0.424 4.345,0 4.345,-0.424 4.239,-0.954 4.027,-1.272 3.815,-1.696 3.497,-1.908 3.179,-2.12 2.755,-2.332 2.332,-2.437 1.802,-2.437 1.272,-2.437 0.848,-2.332 0.424,-2.12 0,-1.908 -0.212,-1.59 -0.424,-1.272 -0.742,-0.954 -0.848,-0.53 -0.848,0" /></g><g
       transform="translate(95.39,93.391)"
       id="g204"><path
         id="path206"
         style="fill:#2b6160;fill-opacity:1;fill-rule:nonzero;stroke:none"
         d="M 0,0 H -4.981 V 0.954 L -3.709,1.06 -3.815,0.954 c -0.318,0.106 -0.53,0.212 -0.742,0.424 -0.212,0.212 -0.318,0.424 -0.424,0.636 -0.106,0.212 -0.106,0.53 -0.106,0.742 0,0.317 0.106,0.635 0.212,0.953 0.106,0.318 0.318,0.53 0.636,0.636 0.318,0.212 0.636,0.212 1.06,0.212 h 3.285 v -1.06 h -2.861 c -0.53,0 -0.848,-0.106 -1.06,-0.318 -0.212,-0.212 -0.318,-0.423 -0.318,-0.741 0,-0.212 0,-0.424 0.106,-0.636 0.106,-0.212 0.318,-0.424 0.53,-0.53 0.212,-0.106 0.53,-0.212 0.953,-0.212 h 2.65 L 0.106,0 H 0" /></g><g
       transform="translate(91.15,105.578)"
       id="g208"><path
         id="path210"
         style="fill:#2b6160;fill-opacity:1;fill-rule:nonzero;stroke:none"
         d="m 0,0 c 0,-0.318 0.106,-0.53 0.212,-0.741 0.106,-0.212 0.318,-0.424 0.636,-0.53 0.212,-0.106 0.53,-0.212 0.954,-0.212 0.424,0 0.742,0.106 0.953,0.212 0.212,0.106 0.424,0.318 0.636,0.53 C 3.497,-0.53 3.603,-0.318 3.603,0 3.603,0.318 3.497,0.53 3.391,0.742 3.285,0.954 3.073,1.06 2.755,1.272 2.544,1.378 2.226,1.484 1.802,1.484 1.378,1.484 1.06,1.378 0.848,1.272 0.636,1.166 0.424,0.954 0.212,0.742 0,0.53 0,0.318 0,0 Z m -0.848,0 c 0,0.53 0.106,0.954 0.318,1.272 C -0.318,1.696 0,1.908 0.318,2.12 0.742,2.332 1.166,2.438 1.696,2.438 2.226,2.438 2.649,2.332 3.073,2.12 3.497,1.908 3.709,1.59 3.921,1.272 4.133,0.954 4.345,0.53 4.345,0 4.345,-0.53 4.239,-0.953 4.027,-1.271 3.815,-1.695 3.497,-1.907 3.179,-2.119 2.755,-2.331 2.332,-2.437 1.802,-2.437 c -0.53,0 -0.954,0.106 -1.378,0.318 C 0,-1.907 -0.212,-1.589 -0.424,-1.271 -0.742,-0.847 -0.848,-0.424 -0.848,0" /></g><g
       transform="translate(88.077,111.831)"
       id="g212"><path
         id="path214"
         style="fill:#2b6160;fill-opacity:1;fill-rule:nonzero;stroke:none"
         d="m 0,0 c 0,0.212 0,0.424 0.106,0.53 0,0.212 0.106,0.318 0.212,0.424 L 1.06,0.742 C 1.06,0.636 0.954,0.636 0.954,0.53 c 0,-0.106 0,-0.212 0,-0.318 0,-0.318 0.106,-0.53 0.212,-0.636 0.106,-0.106 0.318,-0.212 0.636,-0.212 H 7.525 V -1.695 H 1.802 c -0.212,0 -0.53,0 -0.636,0.105 C 1.06,-1.484 0.848,-1.378 0.636,-1.272 0.53,-1.166 0.424,-0.954 0.318,-0.742 0.212,-0.53 0,-0.212 0,0 Z M 2.332,0.954 H 3.17979 V -2.649 H 2.332 Z" /></g><g
       transform="translate(89.667,122.535)"
       id="g216"><path
         id="path218"
         style="fill:#2b6160;fill-opacity:1;fill-rule:nonzero;stroke:none"
         d="m 0,0 v -3.709 h 1.908 v 2.861 h 0.954 v -2.861 h 2.861 v -1.06 H -0.848 V 0 H 0" /></g><g
       transform="translate(90.409,125.079)"
       id="g220"><path
         id="path222"
         style="fill:#2b6160;fill-opacity:1;fill-rule:nonzero;stroke:none"
         d="M 0,0 H 4.981 V -1.06 H 0 Z m -0.848,-0.53 c 0,-0.212 -0.106,-0.424 -0.212,-0.53 -0.106,-0.106 -0.318,-0.212 -0.53,-0.212 -0.212,0 -0.424,0.106 -0.53,0.212 -0.106,0.106 -0.212,0.318 -0.212,0.53 0,0.212 0.106,0.424 0.212,0.53 0.106,0.106 0.318,0.212 0.53,0.212 0.212,0 0.424,-0.106 0.53,-0.212 0.106,-0.106 0.212,-0.318 0.212,-0.53" /></g><g
       transform="translate(90.409,130.378)"
       id="g224"><path
         id="path226"
         style="fill:#2b6160;fill-opacity:1;fill-rule:nonzero;stroke:none"
         d="M 0,0 V 1.165 L 4.981,-0.848 V -2.014 L 0,-4.028 v 1.166 L 4.027,-1.484 0,0" /></g><g
       transform="translate(95.178,133.557)"
       id="g228"><path
         id="path230"
         style="fill:#2b6160;fill-opacity:1;fill-rule:nonzero;stroke:none"
         d="m 0,0 c -0.212,-0.424 -0.53,-0.636 -0.848,-0.848 -0.424,-0.212 -0.848,-0.318 -1.378,-0.318 -0.529,0 -0.953,0.106 -1.377,0.318 -0.424,0.212 -0.636,0.53 -0.848,0.848 -0.212,0.318 -0.318,0.742 -0.318,1.272 0,0.424 0.106,0.848 0.318,1.272 0.212,0.317 0.424,0.635 0.848,0.741 0.318,0.212 0.741,0.318 1.166,0.318 0.105,0 0.211,0 0.317,0 0.106,0 0.212,0 0.318,0 v -4.027 h -0.847 v 3.497 l 0.317,-0.529 c -0.53,0 -0.847,-0.106 -1.165,-0.318 -0.318,-0.212 -0.424,-0.53 -0.424,-0.954 0,-0.318 0.106,-0.53 0.212,-0.742 0.106,-0.212 0.318,-0.424 0.636,-0.53 0.318,-0.106 0.636,-0.212 0.953,-0.212 0.318,0 0.636,0.106 0.954,0.212 0.212,0.106 0.424,0.318 0.636,0.53 0.106,0.212 0.212,0.53 0.212,0.742 0,0.318 -0.106,0.636 -0.212,0.848 -0.106,0.212 -0.318,0.424 -0.53,0.529 l 0.424,0.848 C -0.318,3.285 0,3.073 0.212,2.649 0.424,2.226 0.53,1.802 0.53,1.378 0.318,0.848 0.212,0.424 0,0" /></g><g
       transform="translate(88.713,144.791)"
       id="g232"><path
         id="path234"
         style="fill:#2b6160;fill-opacity:1;fill-rule:nonzero;stroke:none"
         d="M 0,0 C 0,0.636 0.106,1.06 0.318,1.59 0.53,2.119 0.848,2.437 1.272,2.649 L 1.908,1.907 C 1.484,1.696 1.272,1.378 1.06,1.06 0.848,0.742 0.848,0.318 0.848,-0.106 c 0,-0.318 0,-0.53 0.106,-0.742 0.106,-0.212 0.212,-0.318 0.318,-0.424 0.106,-0.106 0.318,-0.106 0.53,-0.106 0.212,0 0.424,0.106 0.53,0.212 0.106,0.106 0.318,0.424 0.318,0.848 L 2.968,1.06 c 0.105,0.636 0.317,1.059 0.635,1.377 0.318,0.318 0.636,0.424 1.06,0.424 0.424,0 0.742,-0.106 1.06,-0.318 C 6.041,2.331 6.253,2.013 6.359,1.59 6.571,1.166 6.571,0.742 6.571,0.212 6.571,-0.212 6.465,-0.636 6.359,-1.06 6.253,-1.484 6.041,-1.802 5.829,-2.014 5.617,-2.332 5.405,-2.544 5.087,-2.756 l -0.742,0.742 c 0.212,0.106 0.424,0.318 0.636,0.53 0.212,0.212 0.318,0.424 0.424,0.742 0.106,0.318 0.106,0.636 0.106,0.954 0,0.318 0,0.53 -0.106,0.742 C 5.299,1.166 5.193,1.378 5.087,1.484 4.981,1.59 4.769,1.696 4.557,1.696 4.345,1.696 4.239,1.59 4.027,1.484 3.921,1.378 3.815,1.06 3.709,0.742 L 3.391,-0.742 C 3.285,-1.166 3.179,-1.484 3.073,-1.696 2.862,-1.908 2.756,-2.12 2.438,-2.226 2.226,-2.332 1.908,-2.438 1.696,-2.438 c -0.424,0 -0.742,0.106 -1.06,0.318 -0.318,0.212 -0.53,0.53 -0.742,0.848 C 0.106,-0.954 0,-0.53 0,0" /></g><g
       transform="translate(88.925,150.62)"
       id="g236"><path
         id="path238"
         style="fill:#2b6160;fill-opacity:1;fill-rule:nonzero;stroke:none"
         d="m 0,0 h 4.981 c 0.212,0 0.424,0.106 0.53,0.212 0.106,0.106 0.212,0.318 0.212,0.53 0,0.212 0,0.318 -0.106,0.424 C 5.511,1.271 5.511,1.377 5.405,1.483 L 6.147,1.695 C 6.253,1.589 6.359,1.377 6.465,1.166 6.571,0.954 6.571,0.742 6.571,0.424 c 0,-0.318 0,-0.53 -0.106,-0.742 C 6.359,-0.53 6.253,-0.742 6.041,-0.848 5.829,-0.954 5.511,-1.06 5.193,-1.06 H 0.318 Z M 1.484,1.695 H 2.33179 V -2.014 H 1.484 Z" /></g><g
       transform="translate(91.362,156.237)"
       id="g240"><path
         id="path242"
         style="fill:#2b6160;fill-opacity:1;fill-rule:nonzero;stroke:none"
         d="m 0,0 c -0.212,-0.212 -0.318,-0.424 -0.318,-0.742 0,-0.318 0.106,-0.53 0.212,-0.742 C 0,-1.696 0.212,-1.802 0.53,-1.908 L 0.106,-2.756 c -0.424,0.106 -0.742,0.424 -0.954,0.742 -0.212,0.318 -0.318,0.848 -0.318,1.378 0,0.636 0.106,1.166 0.424,1.484 C -0.424,1.165 0,1.377 0.53,1.377 h 2.226 c 0.211,0 0.317,0.106 0.317,0.318 0,0.106 0,0.212 0,0.318 L 3.815,1.907 C 3.921,1.801 3.921,1.589 3.921,1.377 3.921,1.059 3.815,0.742 3.603,0.53 3.391,0.318 3.179,0.212 2.862,0.212 L 2.756,0.424 C 2.967,0.318 3.179,0.212 3.391,0.106 3.603,-0.106 3.709,-0.318 3.815,-0.53 3.921,-0.742 3.921,-1.06 3.921,-1.272 3.921,-1.802 3.815,-2.12 3.603,-2.438 3.391,-2.756 3.073,-2.862 2.65,-2.862 c -0.318,0 -0.636,0.106 -0.954,0.318 -0.212,0.212 -0.424,0.636 -0.53,1.06 L 0.742,0.424 h 0.742 l 0.318,-1.378 c 0.106,-0.318 0.106,-0.53 0.212,-0.636 0.106,-0.106 0.212,-0.212 0.424,-0.212 0.212,0 0.318,0.106 0.424,0.212 0.105,0.106 0.211,0.318 0.211,0.53 0,0.212 0,0.424 -0.106,0.636 C 2.862,-0.212 2.756,-0.106 2.65,0 2.438,0.106 2.226,0.212 2.014,0.212 H 0.636 C 0.53,0.318 0.212,0.212 0,0" /></g><g
       transform="translate(95.39,159.628)"
       id="g244"><path
         id="path246"
         style="fill:#2b6160;fill-opacity:1;fill-rule:nonzero;stroke:none"
         d="m 0,0 h -4.981 v 0.954 l 0.848,0.106 c -0.318,0.106 -0.53,0.318 -0.742,0.636 -0.212,0.318 -0.212,0.636 -0.212,0.954 0,0.105 0,0.211 0,0.317 0,0.106 0,0.212 0.106,0.212 l 0.954,-0.106 c 0,-0.106 0,-0.106 -0.106,-0.212 0,-0.106 0,-0.211 0,-0.317 0,-0.212 0.106,-0.424 0.212,-0.636 0.106,-0.212 0.318,-0.318 0.53,-0.53 0.212,-0.106 0.53,-0.212 0.847,-0.212 h 2.65 L 0.106,0 H 0" /></g><g
       transform="translate(91.998,170.226)"
       id="g248"><path
         id="path250"
         style="fill:#2b6160;fill-opacity:1;fill-rule:nonzero;stroke:none"
         d="M 0,0 C 0,0.424 -0.106,0.848 -0.318,1.06 -0.53,1.272 -0.848,1.378 -1.166,1.378 -1.59,1.378 -1.802,1.272 -2.014,1.06 -2.226,0.848 -2.332,0.53 -2.332,0 V -1.272 H 0 Z m -3.179,0.106 c 0,0.424 0.106,0.848 0.212,1.272 0.211,0.318 0.424,0.636 0.741,0.848 0.318,0.212 0.636,0.317 1.06,0.317 0.424,0 0.742,-0.105 1.06,-0.317 C 0.212,2.014 0.424,1.802 0.636,1.378 0.848,1.06 0.848,0.636 0.848,0.106 v -1.484 h 2.437 v -1.06 h -6.57 v 2.544 h 0.106" /></g><g
       transform="translate(91.362,176.903)"
       id="g252"><path
         id="path254"
         style="fill:#2b6160;fill-opacity:1;fill-rule:nonzero;stroke:none"
         d="m 0,0 c -0.212,-0.212 -0.318,-0.424 -0.318,-0.742 0,-0.318 0.106,-0.53 0.212,-0.742 C 0,-1.696 0.212,-1.802 0.53,-1.908 L 0.106,-2.756 c -0.424,0.106 -0.742,0.424 -0.954,0.742 -0.212,0.318 -0.318,0.848 -0.318,1.378 0,0.636 0.106,1.166 0.424,1.484 C -0.424,1.165 0,1.377 0.53,1.377 h 2.226 c 0.211,0 0.317,0.106 0.317,0.318 0,0.106 0,0.212 0,0.318 L 3.815,1.907 C 3.921,1.801 3.921,1.589 3.921,1.377 3.921,1.059 3.815,0.742 3.603,0.53 3.391,0.318 3.179,0.212 2.862,0.212 L 2.756,0.424 C 2.967,0.318 3.179,0.212 3.391,0.106 3.603,-0.106 3.709,-0.318 3.815,-0.53 3.921,-0.742 3.921,-1.06 3.921,-1.272 3.921,-1.802 3.815,-2.12 3.603,-2.438 3.391,-2.756 3.073,-2.862 2.65,-2.862 c -0.318,0 -0.636,0.106 -0.954,0.318 -0.212,0.212 -0.424,0.636 -0.53,1.06 L 0.742,0.424 h 0.742 l 0.53,-1.378 C 2.12,-1.272 2.12,-1.484 2.226,-1.59 2.332,-1.696 2.438,-1.802 2.65,-1.802 c 0.212,0 0.317,0.106 0.423,0.212 0.106,0.106 0.212,0.318 0.212,0.53 0,0.212 0,0.424 -0.106,0.636 C 3.073,-0.212 2.968,-0.106 2.862,0 2.65,0.106 2.438,0.212 2.226,0.212 H 0.848 C 0.53,0.212 0.212,0.212 0,0" /></g><g
       transform="translate(90.303,182.414)"
       id="g256"><path
         id="path258"
         style="fill:#2b6160;fill-opacity:1;fill-rule:nonzero;stroke:none"
         d="m 0,0 c 0,0.424 0.106,0.742 0.212,1.059 0.106,0.318 0.318,0.53 0.53,0.742 0.212,0.212 0.424,0.318 0.742,0.424 L 1.908,1.165 C 1.59,1.059 1.378,0.953 1.166,0.742 0.954,0.53 0.954,0.318 0.954,0 c 0,-0.318 0.106,-0.53 0.212,-0.742 0.106,-0.212 0.318,-0.424 0.636,-0.53 0.212,-0.106 0.53,-0.212 0.954,-0.212 0.423,0 0.635,0.106 0.953,0.212 0.212,0.106 0.424,0.318 0.636,0.53 0.106,0.212 0.212,0.424 0.212,0.742 0,0.212 0,0.424 -0.106,0.636 C 4.345,0.847 4.239,0.953 4.133,1.059 4.027,1.165 3.815,1.271 3.603,1.271 L 3.921,2.225 C 4.239,2.119 4.451,2.013 4.663,1.801 4.875,1.589 5.087,1.377 5.193,1.059 5.299,0.742 5.405,0.424 5.405,0 5.405,-0.53 5.299,-0.954 5.087,-1.272 4.875,-1.59 4.557,-1.908 4.239,-2.12 3.921,-2.332 3.391,-2.438 2.862,-2.438 2.332,-2.438 1.908,-2.332 1.484,-2.12 1.06,-1.908 0.848,-1.59 0.636,-1.272 0.106,-0.848 0,-0.424 0,0" /></g><g
       transform="translate(92.104,188.878)"
       id="g260"><path
         id="path262"
         style="fill:#2b6160;fill-opacity:1;fill-rule:nonzero;stroke:none"
         d="M 0,0 3.285,2.226 V 0.954 L 0.53,-0.847 Z M -1.696,2.014 0.742,-0.424 2.331,-2.013 H 1.166 l -2.862,2.755 z m -2.225,-3.603 h 7.2066 v -1.06 H -3.921 Z" /></g><g
       transform="translate(91.362,194.919)"
       id="g264"><path
         id="path266"
         style="fill:#2b6160;fill-opacity:1;fill-rule:nonzero;stroke:none"
         d="m 0,0 c -0.212,-0.212 -0.318,-0.424 -0.318,-0.742 0,-0.318 0.106,-0.53 0.212,-0.741 C 0,-1.695 0.212,-1.801 0.53,-1.907 L 0.106,-2.755 c -0.424,0.106 -0.742,0.424 -0.954,0.742 -0.212,0.318 -0.318,0.847 -0.318,1.377 0,0.636 0.106,1.166 0.424,1.484 0.318,0.318 0.742,0.53 1.272,0.53 h 2.226 c 0.211,0 0.317,0.106 0.317,0.318 0,0.106 0,0.212 0,0.318 L 3.815,1.908 C 3.921,1.802 3.921,1.59 3.921,1.378 3.921,1.06 3.815,0.742 3.603,0.53 3.391,0.318 3.179,0.212 2.862,0.212 L 2.756,0.424 C 2.967,0.318 3.179,0.212 3.391,0.106 3.603,-0.106 3.709,-0.318 3.815,-0.53 3.921,-0.742 3.921,-1.06 3.921,-1.272 3.921,-1.801 3.815,-2.119 3.603,-2.437 3.391,-2.755 3.073,-2.861 2.65,-2.861 c -0.318,0 -0.636,0.106 -0.954,0.318 -0.212,0.212 -0.424,0.636 -0.53,1.06 L 0.742,0.424 h 0.742 l 0.53,-1.378 C 2.12,-1.272 2.12,-1.483 2.226,-1.589 2.332,-1.695 2.438,-1.801 2.65,-1.801 c 0.212,0 0.317,0.106 0.423,0.212 0.106,0.106 0.212,0.317 0.212,0.529 0,0.212 0,0.424 -0.106,0.636 C 3.073,-0.212 2.968,-0.106 2.862,0 2.65,0.106 2.438,0.212 2.226,0.212 H 0.848 C 0.53,0.318 0.212,0.212 0,0" /></g><g
       transform="translate(89.349,202.762)"
       id="g268"><path
         id="path270"
         style="fill:#2b6160;fill-opacity:1;fill-rule:nonzero;stroke:none"
         d="m 0,0 0.848,0.212 c 0,-0.212 0,-0.424 0.106,-0.636 C 1.06,-0.636 1.06,-0.742 1.272,-0.742 1.378,-0.848 1.59,-0.848 1.696,-0.848 l -0.212,-0.53 c -0.212,0 -0.424,0 -0.53,0.106 C 0.742,-1.166 0.636,-1.06 0.53,-0.954 0.424,-0.848 0.318,-0.636 0.212,-0.53 0,-0.424 0,-0.212 0,0 Z m 1.696,-2.544 c 0,-0.318 0.106,-0.53 0.212,-0.742 0.106,-0.212 0.424,-0.318 0.636,-0.318 0.212,0 0.529,0.106 0.635,0.318 0.212,0.212 0.212,0.424 0.212,0.742 0,0.318 -0.106,0.53 -0.212,0.742 -0.212,0.212 -0.423,0.318 -0.635,0.318 -0.212,0 -0.53,-0.106 -0.636,-0.318 C 1.802,-2.014 1.696,-2.226 1.696,-2.544 Z m 5.723,0 c 0,0.318 0,0.636 -0.106,0.954 -0.106,0.212 -0.212,0.424 -0.318,0.53 -0.106,0.106 -0.212,0.212 -0.318,0.212 -0.106,0 -0.318,-0.106 -0.318,-0.212 0,-0.106 -0.212,-0.318 -0.212,-0.636 v -1.59 c 0,-0.212 0,-0.318 0.106,-0.424 0.106,-0.106 0.212,-0.212 0.424,-0.212 0.212,0 0.424,0.106 0.53,0.424 0.106,0.106 0.212,0.53 0.212,0.954 z m -6.465,0 c 0,0.424 0.106,0.848 0.212,1.166 0.106,0.318 0.318,0.53 0.636,0.742 0.212,0.212 0.53,0.212 0.847,0.212 0.318,0 0.636,-0.106 0.848,-0.212 0.212,-0.106 0.424,-0.424 0.636,-0.742 0.212,-0.318 0.212,-0.742 0.212,-1.166 0,-0.742 -0.106,-1.272 -0.424,-1.589 -0.318,-0.318 -0.742,-0.53 -1.272,-0.53 -0.317,0 -0.635,0.106 -0.847,0.212 -0.212,0.212 -0.424,0.423 -0.636,0.741 -0.212,0.318 -0.212,0.742 -0.212,1.166 z m 4.345,0.954 c 0,0.53 0.106,0.848 0.318,1.166 C 5.829,-0.106 6.147,0 6.571,0 6.889,0 7.207,-0.106 7.419,-0.318 7.631,-0.53 7.842,-0.848 7.948,-1.166 8.054,-1.59 8.16,-2.014 8.16,-2.438 8.16,-3.286 8.054,-3.816 7.736,-4.239 7.419,-4.663 7.207,-4.875 6.783,-4.875 c -0.318,0 -0.53,0.106 -0.742,0.318 -0.212,0.212 -0.318,0.53 -0.318,0.953 L 5.935,-3.71 C 5.829,-4.028 5.723,-4.239 5.617,-4.345 5.511,-4.557 5.193,-4.557 4.981,-4.557 c -0.212,0 -0.53,0.106 -0.742,0.318 -0.212,0.211 -0.318,0.529 -0.318,0.953 l 0.318,0.424 c 0,-0.318 0.106,-0.53 0.212,-0.636 0.106,-0.106 0.212,-0.212 0.424,-0.212 0.212,0 0.318,0.106 0.318,0.212 0.106,0.106 0.106,0.318 0.106,0.53 v 1.378" /></g><g
       transform="translate(90.409,205.093)"
       id="g272"><path
         id="path274"
         style="fill:#2b6160;fill-opacity:1;fill-rule:nonzero;stroke:none"
         d="M 0,0 H 4.981 V -1.06 H 0 Z m -0.848,-0.53 c 0,-0.212 -0.106,-0.424 -0.212,-0.53 -0.106,-0.105 -0.318,-0.211 -0.53,-0.211 -0.212,0 -0.424,0.106 -0.53,0.211 -0.106,0.106 -0.212,0.318 -0.212,0.53 0,0.212 0.106,0.424 0.212,0.53 0.106,0.106 0.318,0.212 0.53,0.212 0.212,0 0.424,-0.106 0.53,-0.212 0.106,-0.106 0.212,-0.212 0.212,-0.53" /></g><g
       transform="translate(95.39,207.107)"
       id="g276"><path
         id="path278"
         style="fill:#2b6160;fill-opacity:1;fill-rule:nonzero;stroke:none"
         d="M 0,0 H -4.981 V 0.954 L -3.709,1.06 -3.815,0.954 c -0.318,0.106 -0.53,0.212 -0.742,0.424 -0.212,0.212 -0.318,0.424 -0.424,0.636 -0.106,0.211 -0.106,0.529 -0.106,0.741 0,0.318 0.106,0.636 0.212,0.954 0.106,0.318 0.318,0.53 0.636,0.636 0.318,0.212 0.636,0.212 1.06,0.212 h 3.285 v -1.06 h -2.861 c -0.53,0 -0.848,-0.106 -1.06,-0.318 -0.212,-0.212 -0.318,-0.424 -0.318,-0.742 0,-0.212 0,-0.423 0.106,-0.635 0.106,-0.212 0.318,-0.424 0.53,-0.53 0.212,-0.106 0.53,-0.212 0.953,-0.212 h 2.65 L 0.106,0 H 0" /></g><g
       transform="translate(89.349,218.023)"
       id="g280"><path
         id="path282"
         style="fill:#2b6160;fill-opacity:1;fill-rule:nonzero;stroke:none"
         d="m 0,0 0.848,0.212 c 0,-0.212 0,-0.424 0.106,-0.636 C 1.06,-0.636 1.06,-0.742 1.272,-0.742 1.378,-0.848 1.59,-0.848 1.696,-0.848 l -0.212,-0.53 c -0.212,0 -0.424,0 -0.53,0.106 C 0.742,-1.166 0.636,-1.06 0.53,-0.954 0.424,-0.848 0.318,-0.636 0.212,-0.53 0,-0.424 0,-0.212 0,0 Z m 1.696,-2.544 c 0,-0.318 0.106,-0.53 0.212,-0.742 0.106,-0.212 0.424,-0.317 0.636,-0.317 0.212,0 0.529,0.105 0.635,0.317 0.212,0.212 0.212,0.424 0.212,0.742 0,0.318 -0.106,0.53 -0.212,0.742 -0.212,0.212 -0.423,0.318 -0.635,0.318 -0.212,0 -0.53,-0.106 -0.636,-0.318 C 1.802,-2.014 1.696,-2.226 1.696,-2.544 Z m 5.723,0 c 0,0.318 0,0.636 -0.106,0.954 -0.106,0.212 -0.212,0.424 -0.318,0.53 -0.106,0.106 -0.212,0.212 -0.318,0.212 -0.106,0 -0.318,-0.106 -0.318,-0.212 0,-0.106 -0.106,-0.318 -0.106,-0.636 v -1.59 c 0,-0.212 0,-0.318 0.106,-0.423 0.106,-0.106 0.212,-0.212 0.424,-0.212 0.212,0 0.424,0.106 0.53,0.423 0,0.212 0.106,0.53 0.106,0.954 z m -6.465,0 c 0,0.424 0.106,0.848 0.212,1.166 0.106,0.318 0.318,0.53 0.636,0.742 0.212,0.212 0.53,0.212 0.847,0.212 0.318,0 0.636,-0.106 0.848,-0.212 0.212,-0.106 0.424,-0.424 0.636,-0.742 0.212,-0.318 0.212,-0.742 0.212,-1.166 0,-0.742 -0.106,-1.271 -0.424,-1.589 -0.318,-0.318 -0.742,-0.53 -1.272,-0.53 -0.317,0 -0.635,0.106 -0.847,0.212 -0.212,0.212 -0.424,0.424 -0.636,0.742 -0.212,0.317 -0.212,0.741 -0.212,1.165 z m 4.345,0.954 c 0,0.53 0.106,0.848 0.318,1.166 C 5.829,-0.106 6.147,0 6.571,0 6.889,0 7.207,-0.106 7.419,-0.318 7.631,-0.53 7.842,-0.848 7.948,-1.166 8.054,-1.59 8.16,-2.014 8.16,-2.438 8.16,-3.286 8.054,-3.815 7.736,-4.239 7.419,-4.663 7.207,-4.875 6.783,-4.875 c -0.318,0 -0.53,0.106 -0.742,0.318 -0.212,0.212 -0.318,0.53 -0.318,0.953 L 5.935,-3.709 C 5.829,-4.027 5.723,-4.239 5.617,-4.345 5.511,-4.557 5.193,-4.557 4.981,-4.557 c -0.212,0 -0.53,0.106 -0.742,0.318 -0.212,0.212 -0.318,0.53 -0.318,0.953 l 0.318,0.424 c 0,-0.318 0.106,-0.53 0.212,-0.636 0.106,-0.106 0.212,-0.212 0.424,-0.212 0.212,0 0.318,0.106 0.318,0.212 0.106,0.106 0.106,0.318 0.106,0.53 v 1.378" /></g></g></svg>