<?xml version="1.0" encoding="UTF-8"?>
<svg id="Layer_1" xmlns="http://www.w3.org/2000/svg" version="1.1" viewBox="0 0 1920 337.78">
  <!-- Generator: Adobe Illustrator 30.1.0, SVG Export Plug-In . SVG Version: 2.1.1 Build 136)  -->
  <defs>
    <style>
      .st0, .st1 {
        fill: #082a44;
      }

      .st2, .st3 {
        fill: #f0b61b;
      }

      .st1 {
        font-family: TwCenMT-Bold, 'Tw Cen MT';
        font-size: 242.99px;
        font-weight: 700;
      }

      .st3 {
        font-family: TwCenMT-Regular, 'Tw Cen MT';
        font-size: 66.92px;
      }
    </style>
  </defs>
  <g>
    <path class="st0" d="M299.35,86.98h-133.26s-16.38,3.38-23.72,29.92c-6.27,22.65-42.67,154.24-53.08,191.93C38.6,282.33,3.98,229.23,3.98,168.05,3.98,80.35,75.1,9.26,162.79,9.26c57.78,0,108.37,30.86,136.15,77.03.13.23.28.46.41.69Z"/>
    <path class="st2" d="M317.73,202.26c-3.66,19.84-13.77,39.41-25.95,52.23-.99,1.04-13.71,12.44-13.97,12,0,0,28.8,47.81,28.8,47.81-7.25,3.33-14.82,6.17-22.72,8.44-8.98,2.6-18.01,4.34-26.97,5.32l-27.79-48.66-27.97-.26-11,45.3c-8.89,1.55-18.03,2.37-27.37,2.37-8.23,0-16.3-.63-24.18-1.83,0,0,25.33-94.69,25.33-94.69h32.34c8.09,0,16.18.03,24.27,0,9.45-.04,19.65,1.37,28.41-3.01,10.03-5.01,15.54-17.65,12.37-28.4-6.05-20.57-29.15-17.1-45.77-17.1h-38.66s12.64-47.32,12.64-47.32c16-.11,31.99-.23,47.99-.34,19.68-.14,42.42-4.11,59.76,7.71,19.81,13.51,24.55,38.08,20.43,60.42Z"/>
  </g>
  <path class="st2" d="M207.27,365.63"/>
  <g>
    <text class="st3" transform="translate(617.1 302.82)"><tspan x="0" y="0">A Division Of The Five Star Group</tspan></text>
    <text class="st1" transform="translate(378.23 215.3) scale(.9 1)"><tspan x="0" y="0">RADIANT FLEXO</tspan></text>
  </g>
  <g>
    <path class="st0" d="M299.35,86.98h-133.26s-16.38,3.38-23.72,29.92c-6.27,22.65-42.67,154.24-53.08,191.93C38.6,282.33,3.98,229.23,3.98,168.05,3.98,80.35,75.1,9.26,162.79,9.26c57.78,0,108.37,30.86,136.15,77.03.13.23.28.46.41.69Z"/>
    <path class="st2" d="M317.73,202.26c-3.66,19.84-13.77,39.41-25.95,52.23-.99,1.04-13.71,12.44-13.97,12,0,0,28.8,47.81,28.8,47.81-7.25,3.33-14.82,6.17-22.72,8.44-8.98,2.6-18.01,4.34-26.97,5.32l-27.79-48.66-27.97-.26-11,45.3c-8.89,1.55-18.03,2.37-27.37,2.37-8.23,0-16.3-.63-24.18-1.83,0,0,25.33-94.69,25.33-94.69h32.34c8.09,0,16.18.03,24.27,0,9.45-.04,19.65,1.37,28.41-3.01,10.03-5.01,15.54-17.65,12.37-28.4-6.05-20.57-29.15-17.1-45.77-17.1h-38.66s12.64-47.32,12.64-47.32c16-.11,31.99-.23,47.99-.34,19.68-.14,42.42-4.11,59.76,7.71,19.81,13.51,24.55,38.08,20.43,60.42Z"/>
  </g>
  <path class="st2" d="M207.27,365.63"/>
  <g>
    <text class="st3" transform="translate(617.1 302.82)"><tspan x="0" y="0">A Division Of The Five Star Group</tspan></text>
    <text class="st1" transform="translate(378.23 215.3) scale(.9 1)"><tspan x="0" y="0">RADIANT FLEXO</tspan></text>
  </g>
  <g>
    <path class="st0" d="M299.35,86.98h-133.26s-16.38,3.38-23.72,29.92c-6.27,22.65-42.67,154.24-53.08,191.93C38.6,282.33,3.98,229.23,3.98,168.05,3.98,80.35,75.1,9.26,162.79,9.26c57.78,0,108.37,30.86,136.15,77.03.13.23.28.46.41.69Z"/>
    <path class="st2" d="M317.73,202.26c-3.66,19.84-13.77,39.41-25.95,52.23-.99,1.04-13.71,12.44-13.97,12,0,0,28.8,47.81,28.8,47.81-7.25,3.33-14.82,6.17-22.72,8.44-8.98,2.6-18.01,4.34-26.97,5.32l-27.79-48.66-27.97-.26-11,45.3c-8.89,1.55-18.03,2.37-27.37,2.37-8.23,0-16.3-.63-24.18-1.83,0,0,25.33-94.69,25.33-94.69h32.34c8.09,0,16.18.03,24.27,0,9.45-.04,19.65,1.37,28.41-3.01,10.03-5.01,15.54-17.65,12.37-28.4-6.05-20.57-29.15-17.1-45.77-17.1h-38.66s12.64-47.32,12.64-47.32c16-.11,31.99-.23,47.99-.34,19.68-.14,42.42-4.11,59.76,7.71,19.81,13.51,24.55,38.08,20.43,60.42Z"/>
  </g>
  <path class="st2" d="M207.27,365.63"/>
  <g>
    <text class="st3" transform="translate(617.1 302.82)"><tspan x="0" y="0">A Division Of The Five Star Group</tspan></text>
    <text class="st1" transform="translate(378.23 215.3) scale(.9 1)"><tspan x="0" y="0">RADIANT FLEXO</tspan></text>
  </g>
  <path class="st2" d="M756.12,143.22"/>
</svg>